<?xml version="1.0" encoding="utf-8" standalone="no"?>
<!DOCTYPE svg PUBLIC "-//W3C//DTD SVG 1.1//EN"
  "http://www.w3.org/Graphics/SVG/1.1/DTD/svg11.dtd">
<!-- Created with matplotlib (http://matplotlib.org/) -->
<svg height="280pt" version="1.1" viewBox="0 0 280 280" width="280pt" xmlns="http://www.w3.org/2000/svg" xmlns:xlink="http://www.w3.org/1999/xlink">
 <defs>
  <style type="text/css">
*{stroke-linecap:butt;stroke-linejoin:round;stroke-miterlimit:100000;}
  </style>
 </defs>
 <g id="figure_1">
  <g id="patch_1">
   <path d="M 0 280.478125 
L 280.652493 280.478125 
L 280.652493 0 
L 0 0 
z
" style="fill:none;"/>
  </g>
  <g id="axes_1">
   <g id="PathCollection_1">
    <defs>
     <path d="M 0 2.236068 
C 0.593012 2.236068 1.161816 2.000462 1.581139 1.581139 
C 2.000462 1.161816 2.236068 0.593012 2.236068 0 
C 2.236068 -0.593012 2.000462 -1.161816 1.581139 -1.581139 
C 1.161816 -2.000462 0.593012 -2.236068 0 -2.236068 
C -0.593012 -2.236068 -1.161816 -2.000462 -1.581139 -1.581139 
C -2.000462 -1.161816 -2.236068 -0.593012 -2.236068 0 
C -2.236068 0.593012 -2.000462 1.161816 -1.581139 1.581139 
C -1.161816 2.000462 -0.593012 2.236068 0 2.236068 
z
" id="mb4ecc33648" style="stroke:#0000ff;"/>
    </defs>
    <g clip-path="url(#pf4cc23cd2d)">
     <use style="fill:#ffffff;stroke:#0000ff;" x="193.462811881" xlink:href="#mb4ecc33648" y="152.078921948"/>
    </g>
   </g>
   <g id="PathCollection_2">
    <defs>
     <path d="M 0 2.236068 
C 0.593012 2.236068 1.161816 2.000462 1.581139 1.581139 
C 2.000462 1.161816 2.236068 0.593012 2.236068 0 
C 2.236068 -0.593012 2.000462 -1.161816 1.581139 -1.581139 
C 1.161816 -2.000462 0.593012 -2.236068 0 -2.236068 
C -0.593012 -2.236068 -1.161816 -2.000462 -1.581139 -1.581139 
C -2.000462 -1.161816 -2.236068 -0.593012 -2.236068 0 
C -2.236068 0.593012 -2.000462 1.161816 -1.581139 1.581139 
C -1.161816 2.000462 -0.593012 2.236068 0 2.236068 
z
" id="mdf8d8349d3" style="stroke:#ff0000;"/>
    </defs>
    <g clip-path="url(#pf4cc23cd2d)">
     <use style="fill:#ffffff;stroke:#ff0000;" x="214.023957457" xlink:href="#mdf8d8349d3" y="167.703795776"/>
    </g>
   </g>
   <g id="line2d_1">
    <path clip-path="url(#pf4cc23cd2d)" d="M 153.296971 21.333673 
L 159.169272 21.487256 
L 165.025478 21.947585 
L 170.849537 22.713396 
L 176.625486 23.782592 
L 182.337492 25.152241 
L 187.969901 26.81859 
L 193.507274 28.777071 
L 198.934433 31.022316 
L 204.236503 33.548172 
L 209.398951 36.347714 
L 214.407627 39.41327 
L 219.248804 42.736437 
L 223.909211 46.308107 
L 228.376075 50.118489 
L 232.637152 54.157141 
L 236.680763 58.412991 
L 240.495825 62.874376 
L 244.071881 67.529066 
L 247.39913 72.364304 
L 250.468451 77.366837 
L 253.271431 82.522952 
L 255.800389 87.818519 
L 258.048392 93.23902 
L 260.009278 98.769601 
L 261.677674 104.3951 
L 263.049005 110.100101 
L 264.119514 115.868964 
L 264.886266 121.685879 
L 265.347159 127.534902 
L 265.500931 133.4 
L 265.347159 139.265098 
L 264.886266 145.114121 
L 264.119514 150.931036 
L 263.049005 156.699899 
L 261.677674 162.4049 
L 260.009278 168.030399 
L 258.048392 173.56098 
L 255.800389 178.981481 
L 253.271431 184.277048 
L 250.468451 189.433163 
L 247.39913 194.435696 
L 244.071881 199.270934 
L 240.495825 203.925624 
L 236.680763 208.387009 
L 232.637152 212.642859 
L 228.376075 216.681511 
L 223.909211 220.491893 
L 219.248804 224.063563 
L 214.407627 227.38673 
L 209.398951 230.452286 
L 204.236503 233.251828 
L 198.934433 235.777684 
L 193.507274 238.022929 
L 187.969901 239.98141 
L 182.337492 241.647759 
L 176.625486 243.017408 
L 170.849537 244.086604 
L 165.025478 244.852415 
L 159.169272 245.312744 
L 153.296971 245.466327 
L 147.424669 245.312744 
L 141.568463 244.852415 
L 135.744404 244.086604 
L 129.968456 243.017408 
L 124.256449 241.647759 
L 118.62404 239.98141 
L 113.086668 238.022929 
L 107.659509 235.777684 
L 102.357439 233.251828 
L 97.194991 230.452286 
L 92.186314 227.38673 
L 87.345138 224.063563 
L 82.684731 220.491893 
L 78.217867 216.681511 
L 73.95679 212.642859 
L 69.913178 208.387009 
L 66.098116 203.925624 
L 62.52206 199.270934 
L 59.194812 194.435696 
L 56.125491 189.433163 
L 53.32251 184.277048 
L 50.793553 178.981481 
L 48.54555 173.56098 
L 46.584663 168.030399 
L 44.916268 162.4049 
L 43.544936 156.699899 
L 42.474427 150.931036 
L 41.707676 145.114121 
L 41.246782 139.265098 
L 41.093011 133.4 
L 41.246782 127.534902 
L 41.707676 121.685879 
L 42.474427 115.868964 
L 43.544936 110.100101 
L 44.916268 104.3951 
L 46.584663 98.769601 
L 48.54555 93.23902 
L 50.793553 87.818519 
L 53.32251 82.522952 
L 56.125491 77.366837 
L 59.194812 72.364304 
L 62.52206 67.529066 
L 66.098116 62.874376 
L 69.913178 58.412991 
L 73.95679 54.157141 
L 78.217867 50.118489 
L 82.684731 46.308107 
L 87.345138 42.736437 
L 92.186314 39.41327 
L 97.194991 36.347714 
L 102.357439 33.548172 
L 107.659509 31.022316 
L 113.086668 28.777071 
L 118.62404 26.81859 
L 124.256449 25.152241 
L 129.968456 23.782592 
L 135.744404 22.713396 
L 141.568463 21.947585 
L 147.424669 21.487256 
L 153.296971 21.333673 
L 153.296971 21.333673 
" style="fill:none;stroke:#000000;stroke-linecap:square;"/>
   </g>
   <g id="line2d_2">
    <defs>
     <path d="M -3 0 
L 3 0 
M 0 3 
L 0 -3 
" id="m3739fefa29" style="stroke:#000000;stroke-width:0.5;"/>
    </defs>
    <g clip-path="url(#pf4cc23cd2d)">
     <use style="stroke:#000000;stroke-width:0.5;" x="153.296970663" xlink:href="#m3739fefa29" y="31.5273436014"/>
     <use style="stroke:#000000;stroke-width:0.5;" x="153.296970663" xlink:href="#m3739fefa29" y="42.4963261609"/>
     <use style="stroke:#000000;stroke-width:0.5;" x="153.296970663" xlink:href="#m3739fefa29" y="54.1571405675"/>
     <use style="stroke:#000000;stroke-width:0.5;" x="153.296970663" xlink:href="#m3739fefa29" y="66.4210409826"/>
     <use style="stroke:#000000;stroke-width:0.5;" x="153.296970663" xlink:href="#m3739fefa29" y="79.1946917187"/>
     <use style="stroke:#000000;stroke-width:0.5;" x="153.296970663" xlink:href="#m3739fefa29" y="92.380877581"/>
     <use style="stroke:#000000;stroke-width:0.5;" x="153.296970663" xlink:href="#m3739fefa29" y="105.879243733"/>
     <use style="stroke:#000000;stroke-width:0.5;" x="153.296970663" xlink:href="#m3739fefa29" y="119.587059457"/>
     <use style="stroke:#000000;stroke-width:0.5;" x="153.296970663" xlink:href="#m3739fefa29" y="133.4"/>
    </g>
   </g>
   <g id="line2d_3">
    <g clip-path="url(#pf4cc23cd2d)">
     <use style="stroke:#000000;stroke-width:0.5;" x="255.294741388" xlink:href="#m3739fefa29" y="133.4"/>
     <use style="stroke:#000000;stroke-width:0.5;" x="244.312287335" xlink:href="#m3739fefa29" y="133.4"/>
     <use style="stroke:#000000;stroke-width:0.5;" x="232.637151765" xlink:href="#m3739fefa29" y="133.4"/>
     <use style="stroke:#000000;stroke-width:0.5;" x="220.35818951" xlink:href="#m3739fefa29" y="133.4"/>
     <use style="stroke:#000000;stroke-width:0.5;" x="207.568850887" xlink:href="#m3739fefa29" y="133.4"/>
     <use style="stroke:#000000;stroke-width:0.5;" x="194.366470485" xlink:href="#m3739fefa29" y="133.4"/>
     <use style="stroke:#000000;stroke-width:0.5;" x="180.851526391" xlink:href="#m3739fefa29" y="133.4"/>
     <use style="stroke:#000000;stroke-width:0.5;" x="167.126875491" xlink:href="#m3739fefa29" y="133.4"/>
    </g>
   </g>
   <g id="line2d_4">
    <g clip-path="url(#pf4cc23cd2d)">
     <use style="stroke:#000000;stroke-width:0.5;" x="153.296970663" xlink:href="#m3739fefa29" y="235.272656399"/>
     <use style="stroke:#000000;stroke-width:0.5;" x="153.296970663" xlink:href="#m3739fefa29" y="224.303673839"/>
     <use style="stroke:#000000;stroke-width:0.5;" x="153.296970663" xlink:href="#m3739fefa29" y="212.642859432"/>
     <use style="stroke:#000000;stroke-width:0.5;" x="153.296970663" xlink:href="#m3739fefa29" y="200.378959017"/>
     <use style="stroke:#000000;stroke-width:0.5;" x="153.296970663" xlink:href="#m3739fefa29" y="187.605308281"/>
     <use style="stroke:#000000;stroke-width:0.5;" x="153.296970663" xlink:href="#m3739fefa29" y="174.419122419"/>
     <use style="stroke:#000000;stroke-width:0.5;" x="153.296970663" xlink:href="#m3739fefa29" y="160.920756267"/>
     <use style="stroke:#000000;stroke-width:0.5;" x="153.296970663" xlink:href="#m3739fefa29" y="147.212940543"/>
    </g>
   </g>
   <g id="line2d_5">
    <g clip-path="url(#pf4cc23cd2d)">
     <use style="stroke:#000000;stroke-width:0.5;" x="51.299199938" xlink:href="#m3739fefa29" y="133.4"/>
     <use style="stroke:#000000;stroke-width:0.5;" x="62.2816539915" xlink:href="#m3739fefa29" y="133.4"/>
     <use style="stroke:#000000;stroke-width:0.5;" x="73.9567895613" xlink:href="#m3739fefa29" y="133.4"/>
     <use style="stroke:#000000;stroke-width:0.5;" x="86.2357518163" xlink:href="#m3739fefa29" y="133.4"/>
     <use style="stroke:#000000;stroke-width:0.5;" x="99.0250904393" xlink:href="#m3739fefa29" y="133.4"/>
     <use style="stroke:#000000;stroke-width:0.5;" x="112.227470841" xlink:href="#m3739fefa29" y="133.4"/>
     <use style="stroke:#000000;stroke-width:0.5;" x="125.742414935" xlink:href="#m3739fefa29" y="133.4"/>
     <use style="stroke:#000000;stroke-width:0.5;" x="139.467065836" xlink:href="#m3739fefa29" y="133.4"/>
    </g>
   </g>
   <g id="line2d_6">
    <path clip-path="url(#pf4cc23cd2d)" d="M 153.296971 21.333673 
L 153.296971 22.315891 
L 153.296971 23.306569 
L 153.296971 24.30563 
" style="fill:none;stroke:#000000;stroke-linecap:square;"/>
   </g>
   <g id="line2d_7">
    <path clip-path="url(#pf4cc23cd2d)" d="M 172.780984 23.036213 
L 172.610214 24.003509 
L 172.437973 24.979135 
L 172.264275 25.963019 
" style="fill:none;stroke:#000000;stroke-linecap:square;"/>
   </g>
   <g id="line2d_8">
    <path clip-path="url(#pf4cc23cd2d)" d="M 191.672985 28.0921 
L 191.336634 29.015083 
L 190.997387 29.946015 
L 190.655268 30.884826 
" style="fill:none;stroke:#000000;stroke-linecap:square;"/>
   </g>
   <g id="line2d_9">
    <path clip-path="url(#pf4cc23cd2d)" d="M 209.398951 36.347714 
L 208.907239 37.19834 
L 208.411292 38.056292 
L 207.911147 38.921504 
" style="fill:none;stroke:#000000;stroke-linecap:square;"/>
   </g>
   <g id="line2d_10">
    <path clip-path="url(#pf4cc23cd2d)" d="M 225.420286 47.552213 
L 224.788153 48.304636 
L 224.150576 49.063539 
L 223.507603 49.828864 
" style="fill:none;stroke:#000000;stroke-linecap:square;"/>
   </g>
   <g id="line2d_11">
    <path clip-path="url(#pf4cc23cd2d)" d="M 239.250191 61.365154 
L 238.496844 61.996511 
L 237.737009 62.633307 
L 236.970744 63.275491 
" style="fill:none;stroke:#000000;stroke-linecap:square;"/>
   </g>
   <g id="line2d_12">
    <path clip-path="url(#pf4cc23cd2d)" d="M 250.468451 77.366837 
L 249.61678 77.857946 
L 248.757775 78.353284 
L 247.8915 78.852815 
" style="fill:none;stroke:#000000;stroke-linecap:square;"/>
   </g>
   <g id="line2d_13">
    <path clip-path="url(#pf4cc23cd2d)" d="M 258.734204 95.071059 
L 257.810088 95.406997 
L 256.878012 95.745829 
L 255.938048 96.087528 
" style="fill:none;stroke:#000000;stroke-linecap:square;"/>
   </g>
   <g id="line2d_14">
    <path clip-path="url(#pf4cc23cd2d)" d="M 263.796301 113.939887 
L 262.827817 114.110447 
L 261.850992 114.282476 
L 260.8659 114.455961 
" style="fill:none;stroke:#000000;stroke-linecap:square;"/>
   </g>
   <g id="line2d_15">
    <path clip-path="url(#pf4cc23cd2d)" d="M 265.500931 133.4 
L 264.517507 133.4 
L 263.525612 133.4 
L 262.525324 133.4 
" style="fill:none;stroke:#000000;stroke-linecap:square;"/>
   </g>
   <g id="line2d_16">
    <path clip-path="url(#pf4cc23cd2d)" d="M 263.796301 152.860113 
L 262.827817 152.689553 
L 261.850992 152.517524 
L 260.8659 152.344039 
" style="fill:none;stroke:#000000;stroke-linecap:square;"/>
   </g>
   <g id="line2d_17">
    <path clip-path="url(#pf4cc23cd2d)" d="M 258.734204 171.728941 
L 257.810088 171.393003 
L 256.878012 171.054171 
L 255.938048 170.712472 
" style="fill:none;stroke:#000000;stroke-linecap:square;"/>
   </g>
   <g id="line2d_18">
    <path clip-path="url(#pf4cc23cd2d)" d="M 250.468451 189.433163 
L 249.61678 188.942054 
L 248.757775 188.446716 
L 247.8915 187.947185 
" style="fill:none;stroke:#000000;stroke-linecap:square;"/>
   </g>
   <g id="line2d_19">
    <path clip-path="url(#pf4cc23cd2d)" d="M 239.250191 205.434846 
L 238.496844 204.803489 
L 237.737009 204.166693 
L 236.970744 203.524509 
" style="fill:none;stroke:#000000;stroke-linecap:square;"/>
   </g>
   <g id="line2d_20">
    <path clip-path="url(#pf4cc23cd2d)" d="M 225.420286 219.247787 
L 224.788153 218.495364 
L 224.150576 217.736461 
L 223.507603 216.971136 
" style="fill:none;stroke:#000000;stroke-linecap:square;"/>
   </g>
   <g id="line2d_21">
    <path clip-path="url(#pf4cc23cd2d)" d="M 209.398951 230.452286 
L 208.907239 229.60166 
L 208.411292 228.743708 
L 207.911147 227.878496 
" style="fill:none;stroke:#000000;stroke-linecap:square;"/>
   </g>
   <g id="line2d_22">
    <path clip-path="url(#pf4cc23cd2d)" d="M 191.672985 238.7079 
L 191.336634 237.784917 
L 190.997387 236.853985 
L 190.655268 235.915174 
" style="fill:none;stroke:#000000;stroke-linecap:square;"/>
   </g>
   <g id="line2d_23">
    <path clip-path="url(#pf4cc23cd2d)" d="M 172.780984 243.763787 
L 172.610214 242.796491 
L 172.437973 241.820865 
L 172.264275 240.836981 
" style="fill:none;stroke:#000000;stroke-linecap:square;"/>
   </g>
   <g id="line2d_24">
    <path clip-path="url(#pf4cc23cd2d)" d="M 153.296971 245.466327 
L 153.296971 244.484109 
L 153.296971 243.493431 
L 153.296971 242.49437 
" style="fill:none;stroke:#000000;stroke-linecap:square;"/>
   </g>
   <g id="line2d_25">
    <path clip-path="url(#pf4cc23cd2d)" d="M 133.812957 243.763787 
L 133.983727 242.796491 
L 134.155968 241.820865 
L 134.329666 240.836981 
" style="fill:none;stroke:#000000;stroke-linecap:square;"/>
   </g>
   <g id="line2d_26">
    <path clip-path="url(#pf4cc23cd2d)" d="M 114.920956 238.7079 
L 115.257307 237.784917 
L 115.596555 236.853985 
L 115.938674 235.915174 
" style="fill:none;stroke:#000000;stroke-linecap:square;"/>
   </g>
   <g id="line2d_27">
    <path clip-path="url(#pf4cc23cd2d)" d="M 97.194991 230.452286 
L 97.686703 229.60166 
L 98.18265 228.743708 
L 98.682794 227.878496 
" style="fill:none;stroke:#000000;stroke-linecap:square;"/>
   </g>
   <g id="line2d_28">
    <path clip-path="url(#pf4cc23cd2d)" d="M 81.173655 219.247787 
L 81.805788 218.495364 
L 82.443365 217.736461 
L 83.086338 216.971136 
" style="fill:none;stroke:#000000;stroke-linecap:square;"/>
   </g>
   <g id="line2d_29">
    <path clip-path="url(#pf4cc23cd2d)" d="M 67.34375 205.434846 
L 68.097097 204.803489 
L 68.856932 204.166693 
L 69.623198 203.524509 
" style="fill:none;stroke:#000000;stroke-linecap:square;"/>
   </g>
   <g id="line2d_30">
    <path clip-path="url(#pf4cc23cd2d)" d="M 56.125491 189.433163 
L 56.977161 188.942054 
L 57.836167 188.446716 
L 58.702442 187.947185 
" style="fill:none;stroke:#000000;stroke-linecap:square;"/>
   </g>
   <g id="line2d_31">
    <path clip-path="url(#pf4cc23cd2d)" d="M 47.859737 171.728941 
L 48.783854 171.393003 
L 49.715929 171.054171 
L 50.655893 170.712472 
" style="fill:none;stroke:#000000;stroke-linecap:square;"/>
   </g>
   <g id="line2d_32">
    <path clip-path="url(#pf4cc23cd2d)" d="M 42.797641 152.860113 
L 43.766125 152.689553 
L 44.74295 152.517524 
L 45.728041 152.344039 
" style="fill:none;stroke:#000000;stroke-linecap:square;"/>
   </g>
   <g id="line2d_33">
    <path clip-path="url(#pf4cc23cd2d)" d="M 41.093011 133.4 
L 42.076435 133.4 
L 43.068329 133.4 
L 44.068617 133.4 
" style="fill:none;stroke:#000000;stroke-linecap:square;"/>
   </g>
   <g id="line2d_34">
    <path clip-path="url(#pf4cc23cd2d)" d="M 42.797641 113.939887 
L 43.766125 114.110447 
L 44.74295 114.282476 
L 45.728041 114.455961 
" style="fill:none;stroke:#000000;stroke-linecap:square;"/>
   </g>
   <g id="line2d_35">
    <path clip-path="url(#pf4cc23cd2d)" d="M 47.859737 95.071059 
L 48.783854 95.406997 
L 49.715929 95.745829 
L 50.655893 96.087528 
" style="fill:none;stroke:#000000;stroke-linecap:square;"/>
   </g>
   <g id="line2d_36">
    <path clip-path="url(#pf4cc23cd2d)" d="M 56.125491 77.366837 
L 56.977161 77.857946 
L 57.836167 78.353284 
L 58.702442 78.852815 
" style="fill:none;stroke:#000000;stroke-linecap:square;"/>
   </g>
   <g id="line2d_37">
    <path clip-path="url(#pf4cc23cd2d)" d="M 67.34375 61.365154 
L 68.097097 61.996511 
L 68.856932 62.633307 
L 69.623198 63.275491 
" style="fill:none;stroke:#000000;stroke-linecap:square;"/>
   </g>
   <g id="line2d_38">
    <path clip-path="url(#pf4cc23cd2d)" d="M 81.173655 47.552213 
L 81.805788 48.304636 
L 82.443365 49.063539 
L 83.086338 49.828864 
" style="fill:none;stroke:#000000;stroke-linecap:square;"/>
   </g>
   <g id="line2d_39">
    <path clip-path="url(#pf4cc23cd2d)" d="M 97.194991 36.347714 
L 97.686703 37.19834 
L 98.18265 38.056292 
L 98.682794 38.921504 
" style="fill:none;stroke:#000000;stroke-linecap:square;"/>
   </g>
   <g id="line2d_40">
    <path clip-path="url(#pf4cc23cd2d)" d="M 114.920956 28.0921 
L 115.257307 29.015083 
L 115.596555 29.946015 
L 115.938674 30.884826 
" style="fill:none;stroke:#000000;stroke-linecap:square;"/>
   </g>
   <g id="line2d_41">
    <path clip-path="url(#pf4cc23cd2d)" d="M 133.812957 23.036213 
L 133.983727 24.003509 
L 134.155968 24.979135 
L 134.329666 25.963019 
" style="fill:none;stroke:#000000;stroke-linecap:square;"/>
   </g>
   <g id="line2d_42">
    <path clip-path="url(#pf4cc23cd2d)" d="M 190.547876 158.068274 
L 190.901474 158.223629 
L 191.265338 158.354755 
L 191.638049 158.461078 
L 192.018146 158.542122 
L 192.404131 158.59751 
L 192.794476 158.626963 
L 193.187629 158.63031 
L 193.582021 158.607483 
L 193.976068 158.558519 
L 194.368185 158.483566 
L 194.756787 158.382874 
L 195.140296 158.256804 
L 195.517151 158.10582 
L 195.885815 157.930494 
L 196.244778 157.731499 
L 196.592567 157.509608 
L 196.927752 157.265694 
L 197.248952 157.000724 
L 197.554841 156.715753 
L 197.844157 156.411926 
L 198.115706 156.090467 
L 198.368365 155.752678 
L 198.601091 155.399929 
L 198.812926 155.033658 
L 199.002999 154.655358 
L 199.170531 154.266576 
L 199.314838 153.868901 
L 199.435337 153.463961 
L 199.531543 153.053414 
L 199.603078 152.63894 
L 199.649666 152.222233 
L 199.671137 151.804996 
L 199.66743 151.388929 
L 199.638585 150.975725 
L 199.584752 150.567062 
L 199.506184 150.164595 
L 199.403235 149.769948 
L 199.27636 149.384707 
L 199.126113 149.010416 
L 198.953143 148.648568 
L 198.758187 148.300599 
L 198.542074 147.967884 
L 198.305712 147.651728 
L 198.050091 147.353366 
L 197.776273 147.073954 
L 197.485391 146.814567 
L 197.178638 146.576195 
L 196.857269 146.35974 
L 196.52259 146.166012 
L 196.175953 145.995726 
L 195.818752 145.849503 
L 195.452417 145.727865 
L 195.078406 145.631235 
L 194.6982 145.559939 
L 194.3133 145.5142 
L 193.925215 145.494142 
L 193.535462 145.49979 
L 193.145558 145.531071 
L 192.757015 145.587812 
L 192.371331 145.669746 
L 191.989992 145.77651 
L 191.614458 145.907649 
L 191.246165 146.062616 
L 190.886517 146.240779 
L 190.536881 146.44142 
L 190.198583 146.663739 
L 189.872903 146.906856 
L 189.561072 147.169818 
L 189.264267 147.4516 
L 188.983608 147.751108 
L 188.720154 148.067186 
L 188.474897 148.398617 
L 188.248765 148.74413 
L 188.042612 149.102404 
L 187.857219 149.472069 
L 187.693291 149.851717 
L 187.551455 150.239901 
L 187.432256 150.635143 
L 187.336157 151.035939 
L 187.263536 151.440763 
L 187.214685 151.848072 
L 187.189809 152.256313 
L 187.189026 152.663926 
L 187.212363 153.069352 
L 187.259759 153.471036 
L 187.331064 153.867433 
L 187.426035 154.257015 
L 187.544345 154.638275 
L 187.685575 155.009731 
L 187.849219 155.369937 
L 188.034685 155.717481 
L 188.241296 156.050996 
L 188.468292 156.369163 
L 188.714831 156.670716 
L 188.979994 156.954448 
L 189.262786 157.219215 
L 189.56214 157.463944 
L 189.876917 157.687633 
L 190.205917 157.889357 
L 190.547876 158.068274 
" style="fill:none;stroke:#0000ff;stroke-linecap:square;"/>
   </g>
   <g id="line2d_43">
    <path clip-path="url(#pf4cc23cd2d)" d="M 207.978267 177.416296 
L 208.483051 177.701734 
L 209.010392 177.947952 
L 209.558323 178.15373 
L 210.124768 178.317999 
L 210.707546 178.439843 
L 211.304378 178.518513 
L 211.9129 178.553427 
L 212.530667 178.544185 
L 213.155165 178.490568 
L 213.783819 178.392546 
L 214.414012 178.250283 
L 215.043087 178.064141 
L 215.668368 177.834679 
L 216.28717 177.562658 
L 216.896815 177.249037 
L 217.494643 176.894975 
L 218.078031 176.501826 
L 218.644405 176.071136 
L 219.191256 175.604635 
L 219.716156 175.104234 
L 220.216768 174.572013 
L 220.690866 174.010212 
L 221.136343 173.421219 
L 221.551226 172.807562 
L 221.93369 172.171889 
L 222.282062 171.516958 
L 222.594837 170.845621 
L 222.870683 170.160807 
L 223.10845 169.465506 
L 223.307172 168.762751 
L 223.466075 168.055604 
L 223.584578 167.347136 
L 223.662294 166.640409 
L 223.699029 165.938464 
L 223.694784 165.2443 
L 223.649749 164.56086 
L 223.5643 163.891017 
L 223.438993 163.237559 
L 223.27456 162.603176 
L 223.0719 161.990447 
L 222.83207 161.401831 
L 222.556281 160.839654 
L 222.245883 160.306105 
L 221.902358 159.803223 
L 221.527313 159.332892 
L 221.122463 158.89684 
L 220.689626 158.496629 
L 220.230711 158.133654 
L 219.747707 157.809142 
L 219.242671 157.524149 
L 218.717723 157.279559 
L 218.175031 157.07609 
L 217.616805 156.914287 
L 217.045283 156.79453 
L 216.462728 156.717033 
L 215.871414 156.681851 
L 215.273623 156.688878 
L 214.671632 156.737858 
L 214.06771 156.828382 
L 213.464106 156.959896 
L 212.86305 157.131709 
L 212.266738 157.34299 
L 211.677332 157.592784 
L 211.096952 157.880005 
L 210.527674 158.203452 
L 209.971517 158.561809 
L 209.430449 158.953651 
L 208.906375 159.377451 
L 208.401134 159.831584 
L 207.916498 160.314335 
L 207.454164 160.823901 
L 207.015753 161.358398 
L 206.602807 161.915869 
L 206.216782 162.494286 
L 205.859048 163.091557 
L 205.530885 163.705532 
L 205.233478 164.334008 
L 204.967917 164.974734 
L 204.735189 165.625419 
L 204.536183 166.283735 
L 204.371678 166.947323 
L 204.242345 167.613801 
L 204.148745 168.28077 
L 204.091324 168.945817 
L 204.070411 169.606525 
L 204.086214 170.260477 
L 204.138822 170.905263 
L 204.228197 171.53849 
L 204.354176 172.157783 
L 204.516467 172.7608 
L 204.714649 173.345231 
L 204.948168 173.908814 
L 205.21634 174.449335 
L 205.518345 174.964645 
L 205.853231 175.452659 
L 206.219913 175.911373 
L 206.617172 176.338866 
L 207.043659 176.733313 
L 207.497893 177.092993 
L 207.978267 177.416296 
" style="fill:none;stroke:#ff0000;stroke-linecap:square;"/>
   </g>
   <g id="legend_1">
    <g id="patch_2">
     <path d="M 35.412908 52.0275 
L 271.181033 52.0275 
L 271.181033 13.2 
L 35.412908 13.2 
z
" style="fill:#ffffff;stroke:#000000;stroke-linejoin:miter;"/>
    </g>
    <g id="PathCollection_3">
     <path d="M 43.812908 26.204193 
C 44.40592 26.204193 44.974724 25.968587 45.394047 25.549264 
C 45.81337 25.129941 46.048976 24.561137 46.048976 23.968125 
C 46.048976 23.375113 45.81337 22.806309 45.394047 22.386986 
C 44.974724 21.967663 44.40592 21.732057 43.812908 21.732057 
C 43.219896 21.732057 42.651092 21.967663 42.231769 22.386986 
C 41.812446 22.806309 41.57684 23.375113 41.57684 23.968125 
C 41.57684 24.561137 41.812446 25.129941 42.231769 25.549264 
C 42.651092 25.968587 43.219896 26.204193 43.812908 26.204193 
z
" style="fill:#ffffff;stroke:#0000ff;"/>
     <path d="M 52.212908 25.154193 
C 52.80592 25.154193 53.374724 24.918587 53.794047 24.499264 
C 54.21337 24.079941 54.448976 23.511137 54.448976 22.918125 
C 54.448976 22.325113 54.21337 21.756309 53.794047 21.336986 
C 53.374724 20.917663 52.80592 20.682057 52.212908 20.682057 
C 51.619896 20.682057 51.051092 20.917663 50.631769 21.336986 
C 50.212446 21.756309 49.97684 22.325113 49.97684 22.918125 
C 49.97684 23.511137 50.212446 24.079941 50.631769 24.499264 
C 51.051092 24.918587 51.619896 25.154193 52.212908 25.154193 
z
" style="fill:#ffffff;stroke:#0000ff;"/>
     <path d="M 60.612908 26.729193 
C 61.20592 26.729193 61.774724 26.493587 62.194047 26.074264 
C 62.61337 25.654941 62.848976 25.086137 62.848976 24.493125 
C 62.848976 23.900113 62.61337 23.331309 62.194047 22.911986 
C 61.774724 22.492663 61.20592 22.257057 60.612908 22.257057 
C 60.019896 22.257057 59.451092 22.492663 59.031769 22.911986 
C 58.612446 23.331309 58.37684 23.900113 58.37684 24.493125 
C 58.37684 25.086137 58.612446 25.654941 59.031769 26.074264 
C 59.451092 26.493587 60.019896 26.729193 60.612908 26.729193 
z
" style="fill:#ffffff;stroke:#0000ff;"/>
    </g>
    <g id="text_1">
     <!-- Halls (1974) tilt-corrected mean -->
     <defs>
      <path d="M 52 44.1875 
Q 55.375 50.25 60.0625 53.125 
Q 64.75 56 71.09375 56 
Q 79.640625 56 84.28125 50.015625 
Q 88.921875 44.046875 88.921875 33.015625 
L 88.921875 0 
L 79.890625 0 
L 79.890625 32.71875 
Q 79.890625 40.578125 77.09375 44.375 
Q 74.3125 48.1875 68.609375 48.1875 
Q 61.625 48.1875 57.5625 43.546875 
Q 53.515625 38.921875 53.515625 30.90625 
L 53.515625 0 
L 44.484375 0 
L 44.484375 32.71875 
Q 44.484375 40.625 41.703125 44.40625 
Q 38.921875 48.1875 33.109375 48.1875 
Q 26.21875 48.1875 22.15625 43.53125 
Q 18.109375 38.875 18.109375 30.90625 
L 18.109375 0 
L 9.078125 0 
L 9.078125 54.6875 
L 18.109375 54.6875 
L 18.109375 46.1875 
Q 21.1875 51.21875 25.484375 53.609375 
Q 29.78125 56 35.6875 56 
Q 41.65625 56 45.828125 52.96875 
Q 50 49.953125 52 44.1875 
" id="BitstreamVeraSans-Roman-6d"/>
      <path d="M 9.421875 54.6875 
L 18.40625 54.6875 
L 18.40625 0 
L 9.421875 0 
z
M 9.421875 75.984375 
L 18.40625 75.984375 
L 18.40625 64.59375 
L 9.421875 64.59375 
z
" id="BitstreamVeraSans-Roman-69"/>
      <path d="M 30.609375 48.390625 
Q 23.390625 48.390625 19.1875 42.75 
Q 14.984375 37.109375 14.984375 27.296875 
Q 14.984375 17.484375 19.15625 11.84375 
Q 23.34375 6.203125 30.609375 6.203125 
Q 37.796875 6.203125 41.984375 11.859375 
Q 46.1875 17.53125 46.1875 27.296875 
Q 46.1875 37.015625 41.984375 42.703125 
Q 37.796875 48.390625 30.609375 48.390625 
M 30.609375 56 
Q 42.328125 56 49.015625 48.375 
Q 55.71875 40.765625 55.71875 27.296875 
Q 55.71875 13.875 49.015625 6.21875 
Q 42.328125 -1.421875 30.609375 -1.421875 
Q 18.84375 -1.421875 12.171875 6.21875 
Q 5.515625 13.875 5.515625 27.296875 
Q 5.515625 40.765625 12.171875 48.375 
Q 18.84375 56 30.609375 56 
" id="BitstreamVeraSans-Roman-6f"/>
      <path d="M 56.203125 29.59375 
L 56.203125 25.203125 
L 14.890625 25.203125 
Q 15.484375 15.921875 20.484375 11.0625 
Q 25.484375 6.203125 34.421875 6.203125 
Q 39.59375 6.203125 44.453125 7.46875 
Q 49.3125 8.734375 54.109375 11.28125 
L 54.109375 2.78125 
Q 49.265625 0.734375 44.1875 -0.34375 
Q 39.109375 -1.421875 33.890625 -1.421875 
Q 20.796875 -1.421875 13.15625 6.1875 
Q 5.515625 13.8125 5.515625 26.8125 
Q 5.515625 40.234375 12.765625 48.109375 
Q 20.015625 56 32.328125 56 
Q 43.359375 56 49.78125 48.890625 
Q 56.203125 41.796875 56.203125 29.59375 
M 47.21875 32.234375 
Q 47.125 39.59375 43.09375 43.984375 
Q 39.0625 48.390625 32.421875 48.390625 
Q 24.90625 48.390625 20.390625 44.140625 
Q 15.875 39.890625 15.1875 32.171875 
z
" id="BitstreamVeraSans-Roman-65"/>
      <path d="M 18.3125 70.21875 
L 18.3125 54.6875 
L 36.8125 54.6875 
L 36.8125 47.703125 
L 18.3125 47.703125 
L 18.3125 18.015625 
Q 18.3125 11.328125 20.140625 9.421875 
Q 21.96875 7.515625 27.59375 7.515625 
L 36.8125 7.515625 
L 36.8125 0 
L 27.59375 0 
Q 17.1875 0 13.234375 3.875 
Q 9.28125 7.765625 9.28125 18.015625 
L 9.28125 47.703125 
L 2.6875 47.703125 
L 2.6875 54.6875 
L 9.28125 54.6875 
L 9.28125 70.21875 
z
" id="BitstreamVeraSans-Roman-74"/>
      <path d="M 9.8125 72.90625 
L 19.671875 72.90625 
L 19.671875 43.015625 
L 55.515625 43.015625 
L 55.515625 72.90625 
L 65.375 72.90625 
L 65.375 0 
L 55.515625 0 
L 55.515625 34.71875 
L 19.671875 34.71875 
L 19.671875 0 
L 9.8125 0 
z
" id="BitstreamVeraSans-Roman-48"/>
      <path d="M 4.890625 31.390625 
L 31.203125 31.390625 
L 31.203125 23.390625 
L 4.890625 23.390625 
z
" id="BitstreamVeraSans-Roman-2d"/>
      <path d="M 12.40625 8.296875 
L 28.515625 8.296875 
L 28.515625 63.921875 
L 10.984375 60.40625 
L 10.984375 69.390625 
L 28.421875 72.90625 
L 38.28125 72.90625 
L 38.28125 8.296875 
L 54.390625 8.296875 
L 54.390625 0 
L 12.40625 0 
z
" id="BitstreamVeraSans-Roman-31"/>
      <path d="M 10.984375 1.515625 
L 10.984375 10.5 
Q 14.703125 8.734375 18.5 7.8125 
Q 22.3125 6.890625 25.984375 6.890625 
Q 35.75 6.890625 40.890625 13.453125 
Q 46.046875 20.015625 46.78125 33.40625 
Q 43.953125 29.203125 39.59375 26.953125 
Q 35.25 24.703125 29.984375 24.703125 
Q 19.046875 24.703125 12.671875 31.3125 
Q 6.296875 37.9375 6.296875 49.421875 
Q 6.296875 60.640625 12.9375 67.421875 
Q 19.578125 74.21875 30.609375 74.21875 
Q 43.265625 74.21875 49.921875 64.515625 
Q 56.59375 54.828125 56.59375 36.375 
Q 56.59375 19.140625 48.40625 8.859375 
Q 40.234375 -1.421875 26.421875 -1.421875 
Q 22.703125 -1.421875 18.890625 -0.6875 
Q 15.09375 0.046875 10.984375 1.515625 
M 30.609375 32.421875 
Q 37.25 32.421875 41.125 36.953125 
Q 45.015625 41.5 45.015625 49.421875 
Q 45.015625 57.28125 41.125 61.84375 
Q 37.25 66.40625 30.609375 66.40625 
Q 23.96875 66.40625 20.09375 61.84375 
Q 16.21875 57.28125 16.21875 49.421875 
Q 16.21875 41.5 20.09375 36.953125 
Q 23.96875 32.421875 30.609375 32.421875 
" id="BitstreamVeraSans-Roman-39"/>
      <path d="M 31 75.875 
Q 24.46875 64.65625 21.28125 53.65625 
Q 18.109375 42.671875 18.109375 31.390625 
Q 18.109375 20.125 21.3125 9.0625 
Q 24.515625 -2 31 -13.1875 
L 23.1875 -13.1875 
Q 15.875 -1.703125 12.234375 9.375 
Q 8.59375 20.453125 8.59375 31.390625 
Q 8.59375 42.28125 12.203125 53.3125 
Q 15.828125 64.359375 23.1875 75.875 
z
" id="BitstreamVeraSans-Roman-28"/>
      <path d="M 45.40625 46.390625 
L 45.40625 75.984375 
L 54.390625 75.984375 
L 54.390625 0 
L 45.40625 0 
L 45.40625 8.203125 
Q 42.578125 3.328125 38.25 0.953125 
Q 33.9375 -1.421875 27.875 -1.421875 
Q 17.96875 -1.421875 11.734375 6.484375 
Q 5.515625 14.40625 5.515625 27.296875 
Q 5.515625 40.1875 11.734375 48.09375 
Q 17.96875 56 27.875 56 
Q 33.9375 56 38.25 53.625 
Q 42.578125 51.265625 45.40625 46.390625 
M 14.796875 27.296875 
Q 14.796875 17.390625 18.875 11.75 
Q 22.953125 6.109375 30.078125 6.109375 
Q 37.203125 6.109375 41.296875 11.75 
Q 45.40625 17.390625 45.40625 27.296875 
Q 45.40625 37.203125 41.296875 42.84375 
Q 37.203125 48.484375 30.078125 48.484375 
Q 22.953125 48.484375 18.875 42.84375 
Q 14.796875 37.203125 14.796875 27.296875 
" id="BitstreamVeraSans-Roman-64"/>
      <path d="M 48.78125 52.59375 
L 48.78125 44.1875 
Q 44.96875 46.296875 41.140625 47.34375 
Q 37.3125 48.390625 33.40625 48.390625 
Q 24.65625 48.390625 19.8125 42.84375 
Q 14.984375 37.3125 14.984375 27.296875 
Q 14.984375 17.28125 19.8125 11.734375 
Q 24.65625 6.203125 33.40625 6.203125 
Q 37.3125 6.203125 41.140625 7.25 
Q 44.96875 8.296875 48.78125 10.40625 
L 48.78125 2.09375 
Q 45.015625 0.34375 40.984375 -0.53125 
Q 36.96875 -1.421875 32.421875 -1.421875 
Q 20.0625 -1.421875 12.78125 6.34375 
Q 5.515625 14.109375 5.515625 27.296875 
Q 5.515625 40.671875 12.859375 48.328125 
Q 20.21875 56 33.015625 56 
Q 37.15625 56 41.109375 55.140625 
Q 45.0625 54.296875 48.78125 52.59375 
" id="BitstreamVeraSans-Roman-63"/>
      <path d="M 54.890625 33.015625 
L 54.890625 0 
L 45.90625 0 
L 45.90625 32.71875 
Q 45.90625 40.484375 42.875 44.328125 
Q 39.84375 48.1875 33.796875 48.1875 
Q 26.515625 48.1875 22.3125 43.546875 
Q 18.109375 38.921875 18.109375 30.90625 
L 18.109375 0 
L 9.078125 0 
L 9.078125 54.6875 
L 18.109375 54.6875 
L 18.109375 46.1875 
Q 21.34375 51.125 25.703125 53.5625 
Q 30.078125 56 35.796875 56 
Q 45.21875 56 50.046875 50.171875 
Q 54.890625 44.34375 54.890625 33.015625 
" id="BitstreamVeraSans-Roman-6e"/>
      <path d="M 8.203125 72.90625 
L 55.078125 72.90625 
L 55.078125 68.703125 
L 28.609375 0 
L 18.3125 0 
L 43.21875 64.59375 
L 8.203125 64.59375 
z
" id="BitstreamVeraSans-Roman-37"/>
      <path d="M 41.109375 46.296875 
Q 39.59375 47.171875 37.8125 47.578125 
Q 36.03125 48 33.890625 48 
Q 26.265625 48 22.1875 43.046875 
Q 18.109375 38.09375 18.109375 28.8125 
L 18.109375 0 
L 9.078125 0 
L 9.078125 54.6875 
L 18.109375 54.6875 
L 18.109375 46.1875 
Q 20.953125 51.171875 25.484375 53.578125 
Q 30.03125 56 36.53125 56 
Q 37.453125 56 38.578125 55.875 
Q 39.703125 55.765625 41.0625 55.515625 
z
" id="BitstreamVeraSans-Roman-72"/>
      <path d="M 37.796875 64.3125 
L 12.890625 25.390625 
L 37.796875 25.390625 
z
M 35.203125 72.90625 
L 47.609375 72.90625 
L 47.609375 25.390625 
L 58.015625 25.390625 
L 58.015625 17.1875 
L 47.609375 17.1875 
L 47.609375 0 
L 37.796875 0 
L 37.796875 17.1875 
L 4.890625 17.1875 
L 4.890625 26.703125 
z
" id="BitstreamVeraSans-Roman-34"/>
      <path d="M 34.28125 27.484375 
Q 23.390625 27.484375 19.1875 25 
Q 14.984375 22.515625 14.984375 16.5 
Q 14.984375 11.71875 18.140625 8.90625 
Q 21.296875 6.109375 26.703125 6.109375 
Q 34.1875 6.109375 38.703125 11.40625 
Q 43.21875 16.703125 43.21875 25.484375 
L 43.21875 27.484375 
z
M 52.203125 31.203125 
L 52.203125 0 
L 43.21875 0 
L 43.21875 8.296875 
Q 40.140625 3.328125 35.546875 0.953125 
Q 30.953125 -1.421875 24.3125 -1.421875 
Q 15.921875 -1.421875 10.953125 3.296875 
Q 6 8.015625 6 15.921875 
Q 6 25.140625 12.171875 29.828125 
Q 18.359375 34.515625 30.609375 34.515625 
L 43.21875 34.515625 
L 43.21875 35.40625 
Q 43.21875 41.609375 39.140625 45 
Q 35.0625 48.390625 27.6875 48.390625 
Q 23 48.390625 18.546875 47.265625 
Q 14.109375 46.140625 10.015625 43.890625 
L 10.015625 52.203125 
Q 14.9375 54.109375 19.578125 55.046875 
Q 24.21875 56 28.609375 56 
Q 40.484375 56 46.34375 49.84375 
Q 52.203125 43.703125 52.203125 31.203125 
" id="BitstreamVeraSans-Roman-61"/>
      <path d="M 44.28125 53.078125 
L 44.28125 44.578125 
Q 40.484375 46.53125 36.375 47.5 
Q 32.28125 48.484375 27.875 48.484375 
Q 21.1875 48.484375 17.84375 46.4375 
Q 14.5 44.390625 14.5 40.28125 
Q 14.5 37.15625 16.890625 35.375 
Q 19.28125 33.59375 26.515625 31.984375 
L 29.59375 31.296875 
Q 39.15625 29.25 43.1875 25.515625 
Q 47.21875 21.78125 47.21875 15.09375 
Q 47.21875 7.46875 41.1875 3.015625 
Q 35.15625 -1.421875 24.609375 -1.421875 
Q 20.21875 -1.421875 15.453125 -0.5625 
Q 10.6875 0.296875 5.421875 2 
L 5.421875 11.28125 
Q 10.40625 8.6875 15.234375 7.390625 
Q 20.0625 6.109375 24.8125 6.109375 
Q 31.15625 6.109375 34.5625 8.28125 
Q 37.984375 10.453125 37.984375 14.40625 
Q 37.984375 18.0625 35.515625 20.015625 
Q 33.0625 21.96875 24.703125 23.78125 
L 21.578125 24.515625 
Q 13.234375 26.265625 9.515625 29.90625 
Q 5.8125 33.546875 5.8125 39.890625 
Q 5.8125 47.609375 11.28125 51.796875 
Q 16.75 56 26.8125 56 
Q 31.78125 56 36.171875 55.265625 
Q 40.578125 54.546875 44.28125 53.078125 
" id="BitstreamVeraSans-Roman-73"/>
      <path d="M 9.421875 75.984375 
L 18.40625 75.984375 
L 18.40625 0 
L 9.421875 0 
z
" id="BitstreamVeraSans-Roman-6c"/>
      <path id="BitstreamVeraSans-Roman-20"/>
      <path d="M 8.015625 75.875 
L 15.828125 75.875 
Q 23.140625 64.359375 26.78125 53.3125 
Q 30.421875 42.28125 30.421875 31.390625 
Q 30.421875 20.453125 26.78125 9.375 
Q 23.140625 -1.703125 15.828125 -13.1875 
L 8.015625 -13.1875 
Q 14.5 -2 17.703125 9.0625 
Q 20.90625 20.125 20.90625 31.390625 
Q 20.90625 42.671875 17.703125 53.65625 
Q 14.5 64.65625 8.015625 75.875 
" id="BitstreamVeraSans-Roman-29"/>
     </defs>
     <g transform="translate(73.8129081633 27.118125)scale(0.12 -0.12)">
      <use xlink:href="#BitstreamVeraSans-Roman-48"/>
      <use x="75.1953125" xlink:href="#BitstreamVeraSans-Roman-61"/>
      <use x="136.474609375" xlink:href="#BitstreamVeraSans-Roman-6c"/>
      <use x="164.2578125" xlink:href="#BitstreamVeraSans-Roman-6c"/>
      <use x="192.041015625" xlink:href="#BitstreamVeraSans-Roman-73"/>
      <use x="244.140625" xlink:href="#BitstreamVeraSans-Roman-20"/>
      <use x="275.927734375" xlink:href="#BitstreamVeraSans-Roman-28"/>
      <use x="314.94140625" xlink:href="#BitstreamVeraSans-Roman-31"/>
      <use x="378.564453125" xlink:href="#BitstreamVeraSans-Roman-39"/>
      <use x="442.1875" xlink:href="#BitstreamVeraSans-Roman-37"/>
      <use x="505.810546875" xlink:href="#BitstreamVeraSans-Roman-34"/>
      <use x="569.43359375" xlink:href="#BitstreamVeraSans-Roman-29"/>
      <use x="608.447265625" xlink:href="#BitstreamVeraSans-Roman-20"/>
      <use x="640.234375" xlink:href="#BitstreamVeraSans-Roman-74"/>
      <use x="679.443359375" xlink:href="#BitstreamVeraSans-Roman-69"/>
      <use x="707.2265625" xlink:href="#BitstreamVeraSans-Roman-6c"/>
      <use x="735.009765625" xlink:href="#BitstreamVeraSans-Roman-74"/>
      <use x="774.21875" xlink:href="#BitstreamVeraSans-Roman-2d"/>
      <use x="810.302734375" xlink:href="#BitstreamVeraSans-Roman-63"/>
      <use x="865.283203125" xlink:href="#BitstreamVeraSans-Roman-6f"/>
      <use x="926.46484375" xlink:href="#BitstreamVeraSans-Roman-72"/>
      <use x="967.5625" xlink:href="#BitstreamVeraSans-Roman-72"/>
      <use x="1008.64453125" xlink:href="#BitstreamVeraSans-Roman-65"/>
      <use x="1070.16796875" xlink:href="#BitstreamVeraSans-Roman-63"/>
      <use x="1125.1484375" xlink:href="#BitstreamVeraSans-Roman-74"/>
      <use x="1164.357421875" xlink:href="#BitstreamVeraSans-Roman-65"/>
      <use x="1225.880859375" xlink:href="#BitstreamVeraSans-Roman-64"/>
      <use x="1289.357421875" xlink:href="#BitstreamVeraSans-Roman-20"/>
      <use x="1321.14453125" xlink:href="#BitstreamVeraSans-Roman-6d"/>
      <use x="1418.556640625" xlink:href="#BitstreamVeraSans-Roman-65"/>
      <use x="1480.080078125" xlink:href="#BitstreamVeraSans-Roman-61"/>
      <use x="1541.359375" xlink:href="#BitstreamVeraSans-Roman-6e"/>
     </g>
    </g>
    <g id="PathCollection_4">
     <path d="M 43.812908 43.817943 
C 44.40592 43.817943 44.974724 43.582337 45.394047 43.163014 
C 45.81337 42.743691 46.048976 42.174887 46.048976 41.581875 
C 46.048976 40.988863 45.81337 40.420059 45.394047 40.000736 
C 44.974724 39.581413 44.40592 39.345807 43.812908 39.345807 
C 43.219896 39.345807 42.651092 39.581413 42.231769 40.000736 
C 41.812446 40.420059 41.57684 40.988863 41.57684 41.581875 
C 41.57684 42.174887 41.812446 42.743691 42.231769 43.163014 
C 42.651092 43.582337 43.219896 43.817943 43.812908 43.817943 
z
" style="fill:#ffffff;stroke:#ff0000;"/>
     <path d="M 52.212908 42.767943 
C 52.80592 42.767943 53.374724 42.532337 53.794047 42.113014 
C 54.21337 41.693691 54.448976 41.124887 54.448976 40.531875 
C 54.448976 39.938863 54.21337 39.370059 53.794047 38.950736 
C 53.374724 38.531413 52.80592 38.295807 52.212908 38.295807 
C 51.619896 38.295807 51.051092 38.531413 50.631769 38.950736 
C 50.212446 39.370059 49.97684 39.938863 49.97684 40.531875 
C 49.97684 41.124887 50.212446 41.693691 50.631769 42.113014 
C 51.051092 42.532337 51.619896 42.767943 52.212908 42.767943 
z
" style="fill:#ffffff;stroke:#ff0000;"/>
     <path d="M 60.612908 44.342943 
C 61.20592 44.342943 61.774724 44.107337 62.194047 43.688014 
C 62.61337 43.268691 62.848976 42.699887 62.848976 42.106875 
C 62.848976 41.513863 62.61337 40.945059 62.194047 40.525736 
C 61.774724 40.106413 61.20592 39.870807 60.612908 39.870807 
C 60.019896 39.870807 59.451092 40.106413 59.031769 40.525736 
C 58.612446 40.945059 58.37684 41.513863 58.37684 42.106875 
C 58.37684 42.699887 58.612446 43.268691 59.031769 43.688014 
C 59.451092 44.107337 60.019896 44.342943 60.612908 44.342943 
z
" style="fill:#ffffff;stroke:#ff0000;"/>
    </g>
    <g id="text_2">
     <!-- Halls (1974) insitu mean -->
     <defs>
      <path d="M 8.5 21.578125 
L 8.5 54.6875 
L 17.484375 54.6875 
L 17.484375 21.921875 
Q 17.484375 14.15625 20.5 10.265625 
Q 23.53125 6.390625 29.59375 6.390625 
Q 36.859375 6.390625 41.078125 11.03125 
Q 45.3125 15.671875 45.3125 23.6875 
L 45.3125 54.6875 
L 54.296875 54.6875 
L 54.296875 0 
L 45.3125 0 
L 45.3125 8.40625 
Q 42.046875 3.421875 37.71875 1 
Q 33.40625 -1.421875 27.6875 -1.421875 
Q 18.265625 -1.421875 13.375 4.4375 
Q 8.5 10.296875 8.5 21.578125 
" id="BitstreamVeraSans-Roman-75"/>
     </defs>
     <g transform="translate(73.8129081633 44.731875)scale(0.12 -0.12)">
      <use xlink:href="#BitstreamVeraSans-Roman-48"/>
      <use x="75.1953125" xlink:href="#BitstreamVeraSans-Roman-61"/>
      <use x="136.474609375" xlink:href="#BitstreamVeraSans-Roman-6c"/>
      <use x="164.2578125" xlink:href="#BitstreamVeraSans-Roman-6c"/>
      <use x="192.041015625" xlink:href="#BitstreamVeraSans-Roman-73"/>
      <use x="244.140625" xlink:href="#BitstreamVeraSans-Roman-20"/>
      <use x="275.927734375" xlink:href="#BitstreamVeraSans-Roman-28"/>
      <use x="314.94140625" xlink:href="#BitstreamVeraSans-Roman-31"/>
      <use x="378.564453125" xlink:href="#BitstreamVeraSans-Roman-39"/>
      <use x="442.1875" xlink:href="#BitstreamVeraSans-Roman-37"/>
      <use x="505.810546875" xlink:href="#BitstreamVeraSans-Roman-34"/>
      <use x="569.43359375" xlink:href="#BitstreamVeraSans-Roman-29"/>
      <use x="608.447265625" xlink:href="#BitstreamVeraSans-Roman-20"/>
      <use x="640.234375" xlink:href="#BitstreamVeraSans-Roman-69"/>
      <use x="668.017578125" xlink:href="#BitstreamVeraSans-Roman-6e"/>
      <use x="731.396484375" xlink:href="#BitstreamVeraSans-Roman-73"/>
      <use x="783.49609375" xlink:href="#BitstreamVeraSans-Roman-69"/>
      <use x="811.279296875" xlink:href="#BitstreamVeraSans-Roman-74"/>
      <use x="850.48828125" xlink:href="#BitstreamVeraSans-Roman-75"/>
      <use x="913.8671875" xlink:href="#BitstreamVeraSans-Roman-20"/>
      <use x="945.654296875" xlink:href="#BitstreamVeraSans-Roman-6d"/>
      <use x="1043.06640625" xlink:href="#BitstreamVeraSans-Roman-65"/>
      <use x="1104.58984375" xlink:href="#BitstreamVeraSans-Roman-61"/>
      <use x="1165.869140625" xlink:href="#BitstreamVeraSans-Roman-6e"/>
     </g>
    </g>
   </g>
  </g>
 </g>
 <defs>
  <clipPath id="pf4cc23cd2d">
   <rect height="252.4" width="235.628316327" x="35.4828125" y="7.2"/>
  </clipPath>
 </defs>
</svg>