<?xml version="1.0" encoding="utf-8" standalone="no"?>
<!DOCTYPE svg PUBLIC "-//W3C//DTD SVG 1.1//EN"
  "http://www.w3.org/Graphics/SVG/1.1/DTD/svg11.dtd">
<!-- Created with matplotlib (http://matplotlib.org/) -->
<svg height="280pt" version="1.1" viewBox="0 0 299 280" width="299pt" xmlns="http://www.w3.org/2000/svg" xmlns:xlink="http://www.w3.org/1999/xlink">
 <defs>
  <style type="text/css">
*{stroke-linecap:butt;stroke-linejoin:round;stroke-miterlimit:100000;}
  </style>
 </defs>
 <g id="figure_1">
  <g id="patch_1">
   <path d="M 0 280.478125 
L 299.409471 280.478125 
L 299.409471 0 
L 0 0 
z
" style="fill:none;"/>
  </g>
  <g id="axes_1">
   <g id="PathCollection_1">
    <defs>
     <path d="M 0 2.236068 
C 0.593012 2.236068 1.161816 2.000462 1.581139 1.581139 
C 2.000462 1.161816 2.236068 0.593012 2.236068 0 
C 2.236068 -0.593012 2.000462 -1.161816 1.581139 -1.581139 
C 1.161816 -2.000462 0.593012 -2.236068 0 -2.236068 
C -0.593012 -2.236068 -1.161816 -2.000462 -1.581139 -1.581139 
C -2.000462 -1.161816 -2.236068 -0.593012 -2.236068 0 
C -2.236068 0.593012 -2.000462 1.161816 -1.581139 1.581139 
C -1.161816 2.000462 -0.593012 2.236068 0 2.236068 
z
" id="C0_0_902b3b2ff0"/>
    </defs>
    <g clip-path="url(#pc736a83425)">
     <use style="fill:none;stroke:#ff0000;" x="239.301307578" xlink:href="#C0_0_902b3b2ff0" y="169.156236344"/>
    </g>
    <g clip-path="url(#pc736a83425)">
     <use style="fill:none;stroke:#ff0000;" x="203.025021845" xlink:href="#C0_0_902b3b2ff0" y="167.535219709"/>
    </g>
    <g clip-path="url(#pc736a83425)">
     <use style="fill:none;stroke:#ff0000;" x="187.233712784" xlink:href="#C0_0_902b3b2ff0" y="180.570042507"/>
    </g>
    <g clip-path="url(#pc736a83425)">
     <use style="fill:none;stroke:#ff0000;" x="211.746047879" xlink:href="#C0_0_902b3b2ff0" y="168.476669504"/>
    </g>
    <g clip-path="url(#pc736a83425)">
     <use style="fill:none;stroke:#ff0000;" x="230.046987962" xlink:href="#C0_0_902b3b2ff0" y="197.040931764"/>
    </g>
    <g clip-path="url(#pc736a83425)">
     <use style="fill:none;stroke:#ff0000;" x="224.767918222" xlink:href="#C0_0_902b3b2ff0" y="154.816009912"/>
    </g>
    <g clip-path="url(#pc736a83425)">
     <use style="fill:none;stroke:#ff0000;" x="238.999593052" xlink:href="#C0_0_902b3b2ff0" y="189.413432035"/>
    </g>
    <g clip-path="url(#pc736a83425)">
     <use style="fill:none;stroke:#ff0000;" x="240.971348645" xlink:href="#C0_0_902b3b2ff0" y="197.959837427"/>
    </g>
    <g clip-path="url(#pc736a83425)">
     <use style="fill:none;stroke:#ff0000;" x="219.908658213" xlink:href="#C0_0_902b3b2ff0" y="160.14488013"/>
    </g>
    <g clip-path="url(#pc736a83425)">
     <use style="fill:none;stroke:#ff0000;" x="237.828029604" xlink:href="#C0_0_902b3b2ff0" y="177.53756237"/>
    </g>
    <g clip-path="url(#pc736a83425)">
     <use style="fill:none;stroke:#ff0000;" x="251.171894312" xlink:href="#C0_0_902b3b2ff0" y="164.59755746"/>
    </g>
    <g clip-path="url(#pc736a83425)">
     <use style="fill:none;stroke:#ff0000;" x="231.875268016" xlink:href="#C0_0_902b3b2ff0" y="145.970765319"/>
    </g>
    <g clip-path="url(#pc736a83425)">
     <use style="fill:none;stroke:#ff0000;" x="205.665255536" xlink:href="#C0_0_902b3b2ff0" y="168.414508243"/>
    </g>
    <g clip-path="url(#pc736a83425)">
     <use style="fill:none;stroke:#ff0000;" x="190.655467469" xlink:href="#C0_0_902b3b2ff0" y="167.114585825"/>
    </g>
    <g clip-path="url(#pc736a83425)">
     <use style="fill:none;stroke:#ff0000;" x="203.541624628" xlink:href="#C0_0_902b3b2ff0" y="165.124389574"/>
    </g>
    <g clip-path="url(#pc736a83425)">
     <use style="fill:none;stroke:#ff0000;" x="211.812881899" xlink:href="#C0_0_902b3b2ff0" y="144.548814707"/>
    </g>
    <g clip-path="url(#pc736a83425)">
     <use style="fill:none;stroke:#ff0000;" x="221.08606747" xlink:href="#C0_0_902b3b2ff0" y="142.794976122"/>
    </g>
    <g clip-path="url(#pc736a83425)">
     <use style="fill:none;stroke:#ff0000;" x="193.606438234" xlink:href="#C0_0_902b3b2ff0" y="158.655064475"/>
    </g>
    <g clip-path="url(#pc736a83425)">
     <use style="fill:none;stroke:#ff0000;" x="228.090483886" xlink:href="#C0_0_902b3b2ff0" y="180.442214352"/>
    </g>
    <g clip-path="url(#pc736a83425)">
     <use style="fill:none;stroke:#ff0000;" x="204.743065492" xlink:href="#C0_0_902b3b2ff0" y="177.909341384"/>
    </g>
    <g clip-path="url(#pc736a83425)">
     <use style="fill:none;stroke:#ff0000;" x="189.844285207" xlink:href="#C0_0_902b3b2ff0" y="161.510697151"/>
    </g>
    <g clip-path="url(#pc736a83425)">
     <use style="fill:none;stroke:#ff0000;" x="187.44582712" xlink:href="#C0_0_902b3b2ff0" y="154.961530238"/>
    </g>
    <g clip-path="url(#pc736a83425)">
     <use style="fill:none;stroke:#ff0000;" x="196.120708933" xlink:href="#C0_0_902b3b2ff0" y="172.318805747"/>
    </g>
    <g clip-path="url(#pc736a83425)">
     <use style="fill:none;stroke:#ff0000;" x="197.801913411" xlink:href="#C0_0_902b3b2ff0" y="169.782190976"/>
    </g>
    <g clip-path="url(#pc736a83425)">
     <use style="fill:none;stroke:#ff0000;" x="172.684426901" xlink:href="#C0_0_902b3b2ff0" y="136.363058629"/>
    </g>
   </g>
   <g id="PathCollection_2">
    <defs>
     <path d="M 0 2.236068 
C 0.593012 2.236068 1.161816 2.000462 1.581139 1.581139 
C 2.000462 1.161816 2.236068 0.593012 2.236068 0 
C 2.236068 -0.593012 2.000462 -1.161816 1.581139 -1.581139 
C 1.161816 -2.000462 0.593012 -2.236068 0 -2.236068 
C -0.593012 -2.236068 -1.161816 -2.000462 -1.581139 -1.581139 
C -2.000462 -1.161816 -2.236068 -0.593012 -2.236068 0 
C -2.236068 0.593012 -2.000462 1.161816 -1.581139 1.581139 
C -1.161816 2.000462 -0.593012 2.236068 0 2.236068 
z
" id="C1_0_8d5ad1c354"/>
    </defs>
    <g clip-path="url(#pc736a83425)">
     <use style="fill:none;stroke:#0000ff;" x="212.621556749" xlink:href="#C1_0_8d5ad1c354" y="150.502157998"/>
    </g>
    <g clip-path="url(#pc736a83425)">
     <use style="fill:none;stroke:#0000ff;" x="188.909849195" xlink:href="#C1_0_8d5ad1c354" y="146.205697961"/>
    </g>
    <g clip-path="url(#pc736a83425)">
     <use style="fill:none;stroke:#0000ff;" x="175.221480324" xlink:href="#C1_0_8d5ad1c354" y="160.15365908"/>
    </g>
    <g clip-path="url(#pc736a83425)">
     <use style="fill:none;stroke:#0000ff;" x="196.145517731" xlink:href="#C1_0_8d5ad1c354" y="148.976465566"/>
    </g>
    <g clip-path="url(#pc736a83425)">
     <use style="fill:none;stroke:#0000ff;" x="204.017053015" xlink:href="#C1_0_8d5ad1c354" y="173.263810608"/>
    </g>
    <g clip-path="url(#pc736a83425)">
     <use style="fill:none;stroke:#0000ff;" x="195.550392764" xlink:href="#C1_0_8d5ad1c354" y="132.147485976"/>
    </g>
    <g clip-path="url(#pc736a83425)">
     <use style="fill:none;stroke:#0000ff;" x="202.201253107" xlink:href="#C1_0_8d5ad1c354" y="160.030773929"/>
    </g>
    <g clip-path="url(#pc736a83425)">
     <use style="fill:none;stroke:#0000ff;" x="208.036873014" xlink:href="#C1_0_8d5ad1c354" y="176.26891687"/>
    </g>
    <g clip-path="url(#pc736a83425)">
     <use style="fill:none;stroke:#0000ff;" x="197.621170676" xlink:href="#C1_0_8d5ad1c354" y="147.955179606"/>
    </g>
    <g clip-path="url(#pc736a83425)">
     <use style="fill:none;stroke:#0000ff;" x="205.53624137" xlink:href="#C1_0_8d5ad1c354" y="161.728817898"/>
    </g>
    <g clip-path="url(#pc736a83425)">
     <use style="fill:none;stroke:#0000ff;" x="200.179106476" xlink:href="#C1_0_8d5ad1c354" y="146.826746137"/>
    </g>
    <g clip-path="url(#pc736a83425)">
     <use style="fill:none;stroke:#0000ff;" x="202.098250338" xlink:href="#C1_0_8d5ad1c354" y="136.551966123"/>
    </g>
    <g clip-path="url(#pc736a83425)">
     <use style="fill:none;stroke:#0000ff;" x="198.5512669" xlink:href="#C1_0_8d5ad1c354" y="155.444920702"/>
    </g>
    <g clip-path="url(#pc736a83425)">
     <use style="fill:none;stroke:#0000ff;" x="179.040977221" xlink:href="#C1_0_8d5ad1c354" y="156.30893768"/>
    </g>
    <g clip-path="url(#pc736a83425)">
     <use style="fill:none;stroke:#0000ff;" x="193.745007875" xlink:href="#C1_0_8d5ad1c354" y="156.630123029"/>
    </g>
    <g clip-path="url(#pc736a83425)">
     <use style="fill:none;stroke:#0000ff;" x="186.870628398" xlink:href="#C1_0_8d5ad1c354" y="135.921319462"/>
    </g>
    <g clip-path="url(#pc736a83425)">
     <use style="fill:none;stroke:#0000ff;" x="196.747467932" xlink:href="#C1_0_8d5ad1c354" y="134.763811929"/>
    </g>
    <g clip-path="url(#pc736a83425)">
     <use style="fill:none;stroke:#0000ff;" x="185.829797516" xlink:href="#C1_0_8d5ad1c354" y="148.071116319"/>
    </g>
    <g clip-path="url(#pc736a83425)">
     <use style="fill:none;stroke:#0000ff;" x="212.706419107" xlink:href="#C1_0_8d5ad1c354" y="163.373060584"/>
    </g>
    <g clip-path="url(#pc736a83425)">
     <use style="fill:none;stroke:#0000ff;" x="187.795256217" xlink:href="#C1_0_8d5ad1c354" y="158.710425231"/>
    </g>
    <g clip-path="url(#pc736a83425)">
     <use style="fill:none;stroke:#0000ff;" x="172.373449804" xlink:href="#C1_0_8d5ad1c354" y="141.097943683"/>
    </g>
    <g clip-path="url(#pc736a83425)">
     <use style="fill:none;stroke:#0000ff;" x="177.130124753" xlink:href="#C1_0_8d5ad1c354" y="146.378318193"/>
    </g>
    <g clip-path="url(#pc736a83425)">
     <use style="fill:none;stroke:#0000ff;" x="189.294483036" xlink:href="#C1_0_8d5ad1c354" y="166.460806033"/>
    </g>
    <g clip-path="url(#pc736a83425)">
     <use style="fill:none;stroke:#0000ff;" x="190.838974107" xlink:href="#C1_0_8d5ad1c354" y="163.872134423"/>
    </g>
    <g clip-path="url(#pc736a83425)">
     <use style="fill:none;stroke:#0000ff;" x="166.392900951" xlink:href="#C1_0_8d5ad1c354" y="131.211181043"/>
    </g>
   </g>
   <g id="line2d_1">
    <path clip-path="url(#pc736a83425)" d="M 153.296971 21.333673 
L 159.169272 21.487256 
L 165.025478 21.947585 
L 170.849537 22.713396 
L 176.625486 23.782592 
L 182.337492 25.152241 
L 187.969901 26.81859 
L 193.507274 28.777071 
L 198.934433 31.022316 
L 204.236503 33.548172 
L 209.398951 36.347714 
L 214.407627 39.41327 
L 219.248804 42.736437 
L 223.909211 46.308107 
L 228.376075 50.118489 
L 232.637152 54.157141 
L 236.680763 58.412991 
L 240.495825 62.874376 
L 244.071881 67.529066 
L 247.39913 72.364304 
L 250.468451 77.366837 
L 253.271431 82.522952 
L 255.800389 87.818519 
L 258.048392 93.23902 
L 260.009278 98.769601 
L 261.677674 104.3951 
L 263.049005 110.100101 
L 264.119514 115.868964 
L 264.886266 121.685879 
L 265.347159 127.534902 
L 265.500931 133.4 
L 265.347159 139.265098 
L 264.886266 145.114121 
L 264.119514 150.931036 
L 263.049005 156.699899 
L 261.677674 162.4049 
L 260.009278 168.030399 
L 258.048392 173.56098 
L 255.800389 178.981481 
L 253.271431 184.277048 
L 250.468451 189.433163 
L 247.39913 194.435696 
L 244.071881 199.270934 
L 240.495825 203.925624 
L 236.680763 208.387009 
L 232.637152 212.642859 
L 228.376075 216.681511 
L 223.909211 220.491893 
L 219.248804 224.063563 
L 214.407627 227.38673 
L 209.398951 230.452286 
L 204.236503 233.251828 
L 198.934433 235.777684 
L 193.507274 238.022929 
L 187.969901 239.98141 
L 182.337492 241.647759 
L 176.625486 243.017408 
L 170.849537 244.086604 
L 165.025478 244.852415 
L 159.169272 245.312744 
L 153.296971 245.466327 
L 147.424669 245.312744 
L 141.568463 244.852415 
L 135.744404 244.086604 
L 129.968456 243.017408 
L 124.256449 241.647759 
L 118.62404 239.98141 
L 113.086668 238.022929 
L 107.659509 235.777684 
L 102.357439 233.251828 
L 97.194991 230.452286 
L 92.186314 227.38673 
L 87.345138 224.063563 
L 82.684731 220.491893 
L 78.217867 216.681511 
L 73.95679 212.642859 
L 69.913178 208.387009 
L 66.098116 203.925624 
L 62.52206 199.270934 
L 59.194812 194.435696 
L 56.125491 189.433163 
L 53.32251 184.277048 
L 50.793553 178.981481 
L 48.54555 173.56098 
L 46.584663 168.030399 
L 44.916268 162.4049 
L 43.544936 156.699899 
L 42.474427 150.931036 
L 41.707676 145.114121 
L 41.246782 139.265098 
L 41.093011 133.4 
L 41.246782 127.534902 
L 41.707676 121.685879 
L 42.474427 115.868964 
L 43.544936 110.100101 
L 44.916268 104.3951 
L 46.584663 98.769601 
L 48.54555 93.23902 
L 50.793553 87.818519 
L 53.32251 82.522952 
L 56.125491 77.366837 
L 59.194812 72.364304 
L 62.52206 67.529066 
L 66.098116 62.874376 
L 69.913178 58.412991 
L 73.95679 54.157141 
L 78.217867 50.118489 
L 82.684731 46.308107 
L 87.345138 42.736437 
L 92.186314 39.41327 
L 97.194991 36.347714 
L 102.357439 33.548172 
L 107.659509 31.022316 
L 113.086668 28.777071 
L 118.62404 26.81859 
L 124.256449 25.152241 
L 129.968456 23.782592 
L 135.744404 22.713396 
L 141.568463 21.947585 
L 147.424669 21.487256 
L 153.296971 21.333673 
L 153.296971 21.333673 
" style="fill:none;stroke:#000000;stroke-linecap:square;"/>
   </g>
   <g id="line2d_2">
    <defs>
     <path d="M -3 0 
L 3 0 
M 0 3 
L 0 -3 
" id="mc1f0c0a22b" style="stroke:#000000;stroke-width:0.5;"/>
    </defs>
    <g clip-path="url(#pc736a83425)">
     <use style="stroke:#000000;stroke-width:0.5;" x="153.296970663" xlink:href="#mc1f0c0a22b" y="31.5273436014"/>
     <use style="stroke:#000000;stroke-width:0.5;" x="153.296970663" xlink:href="#mc1f0c0a22b" y="42.4963261609"/>
     <use style="stroke:#000000;stroke-width:0.5;" x="153.296970663" xlink:href="#mc1f0c0a22b" y="54.1571405675"/>
     <use style="stroke:#000000;stroke-width:0.5;" x="153.296970663" xlink:href="#mc1f0c0a22b" y="66.4210409826"/>
     <use style="stroke:#000000;stroke-width:0.5;" x="153.296970663" xlink:href="#mc1f0c0a22b" y="79.1946917187"/>
     <use style="stroke:#000000;stroke-width:0.5;" x="153.296970663" xlink:href="#mc1f0c0a22b" y="92.380877581"/>
     <use style="stroke:#000000;stroke-width:0.5;" x="153.296970663" xlink:href="#mc1f0c0a22b" y="105.879243733"/>
     <use style="stroke:#000000;stroke-width:0.5;" x="153.296970663" xlink:href="#mc1f0c0a22b" y="119.587059457"/>
     <use style="stroke:#000000;stroke-width:0.5;" x="153.296970663" xlink:href="#mc1f0c0a22b" y="133.4"/>
    </g>
   </g>
   <g id="line2d_3">
    <g clip-path="url(#pc736a83425)">
     <use style="stroke:#000000;stroke-width:0.5;" x="255.294741388" xlink:href="#mc1f0c0a22b" y="133.4"/>
     <use style="stroke:#000000;stroke-width:0.5;" x="244.312287335" xlink:href="#mc1f0c0a22b" y="133.4"/>
     <use style="stroke:#000000;stroke-width:0.5;" x="232.637151765" xlink:href="#mc1f0c0a22b" y="133.4"/>
     <use style="stroke:#000000;stroke-width:0.5;" x="220.35818951" xlink:href="#mc1f0c0a22b" y="133.4"/>
     <use style="stroke:#000000;stroke-width:0.5;" x="207.568850887" xlink:href="#mc1f0c0a22b" y="133.4"/>
     <use style="stroke:#000000;stroke-width:0.5;" x="194.366470485" xlink:href="#mc1f0c0a22b" y="133.4"/>
     <use style="stroke:#000000;stroke-width:0.5;" x="180.851526391" xlink:href="#mc1f0c0a22b" y="133.4"/>
     <use style="stroke:#000000;stroke-width:0.5;" x="167.126875491" xlink:href="#mc1f0c0a22b" y="133.4"/>
    </g>
   </g>
   <g id="line2d_4">
    <g clip-path="url(#pc736a83425)">
     <use style="stroke:#000000;stroke-width:0.5;" x="153.296970663" xlink:href="#mc1f0c0a22b" y="235.272656399"/>
     <use style="stroke:#000000;stroke-width:0.5;" x="153.296970663" xlink:href="#mc1f0c0a22b" y="224.303673839"/>
     <use style="stroke:#000000;stroke-width:0.5;" x="153.296970663" xlink:href="#mc1f0c0a22b" y="212.642859432"/>
     <use style="stroke:#000000;stroke-width:0.5;" x="153.296970663" xlink:href="#mc1f0c0a22b" y="200.378959017"/>
     <use style="stroke:#000000;stroke-width:0.5;" x="153.296970663" xlink:href="#mc1f0c0a22b" y="187.605308281"/>
     <use style="stroke:#000000;stroke-width:0.5;" x="153.296970663" xlink:href="#mc1f0c0a22b" y="174.419122419"/>
     <use style="stroke:#000000;stroke-width:0.5;" x="153.296970663" xlink:href="#mc1f0c0a22b" y="160.920756267"/>
     <use style="stroke:#000000;stroke-width:0.5;" x="153.296970663" xlink:href="#mc1f0c0a22b" y="147.212940543"/>
    </g>
   </g>
   <g id="line2d_5">
    <g clip-path="url(#pc736a83425)">
     <use style="stroke:#000000;stroke-width:0.5;" x="51.299199938" xlink:href="#mc1f0c0a22b" y="133.4"/>
     <use style="stroke:#000000;stroke-width:0.5;" x="62.2816539915" xlink:href="#mc1f0c0a22b" y="133.4"/>
     <use style="stroke:#000000;stroke-width:0.5;" x="73.9567895613" xlink:href="#mc1f0c0a22b" y="133.4"/>
     <use style="stroke:#000000;stroke-width:0.5;" x="86.2357518163" xlink:href="#mc1f0c0a22b" y="133.4"/>
     <use style="stroke:#000000;stroke-width:0.5;" x="99.0250904393" xlink:href="#mc1f0c0a22b" y="133.4"/>
     <use style="stroke:#000000;stroke-width:0.5;" x="112.227470841" xlink:href="#mc1f0c0a22b" y="133.4"/>
     <use style="stroke:#000000;stroke-width:0.5;" x="125.742414935" xlink:href="#mc1f0c0a22b" y="133.4"/>
     <use style="stroke:#000000;stroke-width:0.5;" x="139.467065836" xlink:href="#mc1f0c0a22b" y="133.4"/>
    </g>
   </g>
   <g id="line2d_6">
    <path clip-path="url(#pc736a83425)" d="M 153.296971 21.333673 
L 153.296971 22.315891 
L 153.296971 23.306569 
L 153.296971 24.30563 
" style="fill:none;stroke:#000000;stroke-linecap:square;"/>
   </g>
   <g id="line2d_7">
    <path clip-path="url(#pc736a83425)" d="M 172.780984 23.036213 
L 172.610214 24.003509 
L 172.437973 24.979135 
L 172.264275 25.963019 
" style="fill:none;stroke:#000000;stroke-linecap:square;"/>
   </g>
   <g id="line2d_8">
    <path clip-path="url(#pc736a83425)" d="M 191.672985 28.0921 
L 191.336634 29.015083 
L 190.997387 29.946015 
L 190.655268 30.884826 
" style="fill:none;stroke:#000000;stroke-linecap:square;"/>
   </g>
   <g id="line2d_9">
    <path clip-path="url(#pc736a83425)" d="M 209.398951 36.347714 
L 208.907239 37.19834 
L 208.411292 38.056292 
L 207.911147 38.921504 
" style="fill:none;stroke:#000000;stroke-linecap:square;"/>
   </g>
   <g id="line2d_10">
    <path clip-path="url(#pc736a83425)" d="M 225.420286 47.552213 
L 224.788153 48.304636 
L 224.150576 49.063539 
L 223.507603 49.828864 
" style="fill:none;stroke:#000000;stroke-linecap:square;"/>
   </g>
   <g id="line2d_11">
    <path clip-path="url(#pc736a83425)" d="M 239.250191 61.365154 
L 238.496844 61.996511 
L 237.737009 62.633307 
L 236.970744 63.275491 
" style="fill:none;stroke:#000000;stroke-linecap:square;"/>
   </g>
   <g id="line2d_12">
    <path clip-path="url(#pc736a83425)" d="M 250.468451 77.366837 
L 249.61678 77.857946 
L 248.757775 78.353284 
L 247.8915 78.852815 
" style="fill:none;stroke:#000000;stroke-linecap:square;"/>
   </g>
   <g id="line2d_13">
    <path clip-path="url(#pc736a83425)" d="M 258.734204 95.071059 
L 257.810088 95.406997 
L 256.878012 95.745829 
L 255.938048 96.087528 
" style="fill:none;stroke:#000000;stroke-linecap:square;"/>
   </g>
   <g id="line2d_14">
    <path clip-path="url(#pc736a83425)" d="M 263.796301 113.939887 
L 262.827817 114.110447 
L 261.850992 114.282476 
L 260.8659 114.455961 
" style="fill:none;stroke:#000000;stroke-linecap:square;"/>
   </g>
   <g id="line2d_15">
    <path clip-path="url(#pc736a83425)" d="M 265.500931 133.4 
L 264.517507 133.4 
L 263.525612 133.4 
L 262.525324 133.4 
" style="fill:none;stroke:#000000;stroke-linecap:square;"/>
   </g>
   <g id="line2d_16">
    <path clip-path="url(#pc736a83425)" d="M 263.796301 152.860113 
L 262.827817 152.689553 
L 261.850992 152.517524 
L 260.8659 152.344039 
" style="fill:none;stroke:#000000;stroke-linecap:square;"/>
   </g>
   <g id="line2d_17">
    <path clip-path="url(#pc736a83425)" d="M 258.734204 171.728941 
L 257.810088 171.393003 
L 256.878012 171.054171 
L 255.938048 170.712472 
" style="fill:none;stroke:#000000;stroke-linecap:square;"/>
   </g>
   <g id="line2d_18">
    <path clip-path="url(#pc736a83425)" d="M 250.468451 189.433163 
L 249.61678 188.942054 
L 248.757775 188.446716 
L 247.8915 187.947185 
" style="fill:none;stroke:#000000;stroke-linecap:square;"/>
   </g>
   <g id="line2d_19">
    <path clip-path="url(#pc736a83425)" d="M 239.250191 205.434846 
L 238.496844 204.803489 
L 237.737009 204.166693 
L 236.970744 203.524509 
" style="fill:none;stroke:#000000;stroke-linecap:square;"/>
   </g>
   <g id="line2d_20">
    <path clip-path="url(#pc736a83425)" d="M 225.420286 219.247787 
L 224.788153 218.495364 
L 224.150576 217.736461 
L 223.507603 216.971136 
" style="fill:none;stroke:#000000;stroke-linecap:square;"/>
   </g>
   <g id="line2d_21">
    <path clip-path="url(#pc736a83425)" d="M 209.398951 230.452286 
L 208.907239 229.60166 
L 208.411292 228.743708 
L 207.911147 227.878496 
" style="fill:none;stroke:#000000;stroke-linecap:square;"/>
   </g>
   <g id="line2d_22">
    <path clip-path="url(#pc736a83425)" d="M 191.672985 238.7079 
L 191.336634 237.784917 
L 190.997387 236.853985 
L 190.655268 235.915174 
" style="fill:none;stroke:#000000;stroke-linecap:square;"/>
   </g>
   <g id="line2d_23">
    <path clip-path="url(#pc736a83425)" d="M 172.780984 243.763787 
L 172.610214 242.796491 
L 172.437973 241.820865 
L 172.264275 240.836981 
" style="fill:none;stroke:#000000;stroke-linecap:square;"/>
   </g>
   <g id="line2d_24">
    <path clip-path="url(#pc736a83425)" d="M 153.296971 245.466327 
L 153.296971 244.484109 
L 153.296971 243.493431 
L 153.296971 242.49437 
" style="fill:none;stroke:#000000;stroke-linecap:square;"/>
   </g>
   <g id="line2d_25">
    <path clip-path="url(#pc736a83425)" d="M 133.812957 243.763787 
L 133.983727 242.796491 
L 134.155968 241.820865 
L 134.329666 240.836981 
" style="fill:none;stroke:#000000;stroke-linecap:square;"/>
   </g>
   <g id="line2d_26">
    <path clip-path="url(#pc736a83425)" d="M 114.920956 238.7079 
L 115.257307 237.784917 
L 115.596555 236.853985 
L 115.938674 235.915174 
" style="fill:none;stroke:#000000;stroke-linecap:square;"/>
   </g>
   <g id="line2d_27">
    <path clip-path="url(#pc736a83425)" d="M 97.194991 230.452286 
L 97.686703 229.60166 
L 98.18265 228.743708 
L 98.682794 227.878496 
" style="fill:none;stroke:#000000;stroke-linecap:square;"/>
   </g>
   <g id="line2d_28">
    <path clip-path="url(#pc736a83425)" d="M 81.173655 219.247787 
L 81.805788 218.495364 
L 82.443365 217.736461 
L 83.086338 216.971136 
" style="fill:none;stroke:#000000;stroke-linecap:square;"/>
   </g>
   <g id="line2d_29">
    <path clip-path="url(#pc736a83425)" d="M 67.34375 205.434846 
L 68.097097 204.803489 
L 68.856932 204.166693 
L 69.623198 203.524509 
" style="fill:none;stroke:#000000;stroke-linecap:square;"/>
   </g>
   <g id="line2d_30">
    <path clip-path="url(#pc736a83425)" d="M 56.125491 189.433163 
L 56.977161 188.942054 
L 57.836167 188.446716 
L 58.702442 187.947185 
" style="fill:none;stroke:#000000;stroke-linecap:square;"/>
   </g>
   <g id="line2d_31">
    <path clip-path="url(#pc736a83425)" d="M 47.859737 171.728941 
L 48.783854 171.393003 
L 49.715929 171.054171 
L 50.655893 170.712472 
" style="fill:none;stroke:#000000;stroke-linecap:square;"/>
   </g>
   <g id="line2d_32">
    <path clip-path="url(#pc736a83425)" d="M 42.797641 152.860113 
L 43.766125 152.689553 
L 44.74295 152.517524 
L 45.728041 152.344039 
" style="fill:none;stroke:#000000;stroke-linecap:square;"/>
   </g>
   <g id="line2d_33">
    <path clip-path="url(#pc736a83425)" d="M 41.093011 133.4 
L 42.076435 133.4 
L 43.068329 133.4 
L 44.068617 133.4 
" style="fill:none;stroke:#000000;stroke-linecap:square;"/>
   </g>
   <g id="line2d_34">
    <path clip-path="url(#pc736a83425)" d="M 42.797641 113.939887 
L 43.766125 114.110447 
L 44.74295 114.282476 
L 45.728041 114.455961 
" style="fill:none;stroke:#000000;stroke-linecap:square;"/>
   </g>
   <g id="line2d_35">
    <path clip-path="url(#pc736a83425)" d="M 47.859737 95.071059 
L 48.783854 95.406997 
L 49.715929 95.745829 
L 50.655893 96.087528 
" style="fill:none;stroke:#000000;stroke-linecap:square;"/>
   </g>
   <g id="line2d_36">
    <path clip-path="url(#pc736a83425)" d="M 56.125491 77.366837 
L 56.977161 77.857946 
L 57.836167 78.353284 
L 58.702442 78.852815 
" style="fill:none;stroke:#000000;stroke-linecap:square;"/>
   </g>
   <g id="line2d_37">
    <path clip-path="url(#pc736a83425)" d="M 67.34375 61.365154 
L 68.097097 61.996511 
L 68.856932 62.633307 
L 69.623198 63.275491 
" style="fill:none;stroke:#000000;stroke-linecap:square;"/>
   </g>
   <g id="line2d_38">
    <path clip-path="url(#pc736a83425)" d="M 81.173655 47.552213 
L 81.805788 48.304636 
L 82.443365 49.063539 
L 83.086338 49.828864 
" style="fill:none;stroke:#000000;stroke-linecap:square;"/>
   </g>
   <g id="line2d_39">
    <path clip-path="url(#pc736a83425)" d="M 97.194991 36.347714 
L 97.686703 37.19834 
L 98.18265 38.056292 
L 98.682794 38.921504 
" style="fill:none;stroke:#000000;stroke-linecap:square;"/>
   </g>
   <g id="line2d_40">
    <path clip-path="url(#pc736a83425)" d="M 114.920956 28.0921 
L 115.257307 29.015083 
L 115.596555 29.946015 
L 115.938674 30.884826 
" style="fill:none;stroke:#000000;stroke-linecap:square;"/>
   </g>
   <g id="line2d_41">
    <path clip-path="url(#pc736a83425)" d="M 133.812957 23.036213 
L 133.983727 24.003509 
L 134.155968 24.979135 
L 134.329666 25.963019 
" style="fill:none;stroke:#000000;stroke-linecap:square;"/>
   </g>
   <g id="legend_1">
    <g id="patch_2">
     <path d="M 14.861971 52.0275 
L 291.731971 52.0275 
L 291.731971 13.2 
L 14.861971 13.2 
z
" style="fill:#ffffff;stroke:#000000;stroke-linejoin:miter;"/>
    </g>
    <g id="PathCollection_3">
     <path d="M 23.261971 26.204193 
C 23.854983 26.204193 24.423787 25.968587 24.843109 25.549264 
C 25.262432 25.129941 25.498039 24.561137 25.498039 23.968125 
C 25.498039 23.375113 25.262432 22.806309 24.843109 22.386986 
C 24.423787 21.967663 23.854983 21.732057 23.261971 21.732057 
C 22.668959 21.732057 22.100155 21.967663 21.680832 22.386986 
C 21.261509 22.806309 21.025903 23.375113 21.025903 23.968125 
C 21.025903 24.561137 21.261509 25.129941 21.680832 25.549264 
C 22.100155 25.968587 22.668959 26.204193 23.261971 26.204193 
z
" style="fill:none;stroke:#ff0000;"/>
     <path d="M 31.661971 25.154193 
C 32.254983 25.154193 32.823787 24.918587 33.243109 24.499264 
C 33.662432 24.079941 33.898039 23.511137 33.898039 22.918125 
C 33.898039 22.325113 33.662432 21.756309 33.243109 21.336986 
C 32.823787 20.917663 32.254983 20.682057 31.661971 20.682057 
C 31.068959 20.682057 30.500155 20.917663 30.080832 21.336986 
C 29.661509 21.756309 29.425903 22.325113 29.425903 22.918125 
C 29.425903 23.511137 29.661509 24.079941 30.080832 24.499264 
C 30.500155 24.918587 31.068959 25.154193 31.661971 25.154193 
z
" style="fill:none;stroke:#ff0000;"/>
     <path d="M 40.061971 26.729193 
C 40.654983 26.729193 41.223787 26.493587 41.643109 26.074264 
C 42.062432 25.654941 42.298039 25.086137 42.298039 24.493125 
C 42.298039 23.900113 42.062432 23.331309 41.643109 22.911986 
C 41.223787 22.492663 40.654983 22.257057 40.061971 22.257057 
C 39.468959 22.257057 38.900155 22.492663 38.480832 22.911986 
C 38.061509 23.331309 37.825903 23.900113 37.825903 24.493125 
C 37.825903 25.086137 38.061509 25.654941 38.480832 26.074264 
C 38.900155 26.493587 39.468959 26.729193 40.061971 26.729193 
z
" style="fill:none;stroke:#ff0000;"/>
    </g>
    <g id="text_1">
     <!-- Halls (1974) site means (in situ) -->
     <defs>
      <path d="M 52 44.1875 
Q 55.375 50.25 60.0625 53.125 
Q 64.75 56 71.09375 56 
Q 79.640625 56 84.28125 50.015625 
Q 88.921875 44.046875 88.921875 33.015625 
L 88.921875 0 
L 79.890625 0 
L 79.890625 32.71875 
Q 79.890625 40.578125 77.09375 44.375 
Q 74.3125 48.1875 68.609375 48.1875 
Q 61.625 48.1875 57.5625 43.546875 
Q 53.515625 38.921875 53.515625 30.90625 
L 53.515625 0 
L 44.484375 0 
L 44.484375 32.71875 
Q 44.484375 40.625 41.703125 44.40625 
Q 38.921875 48.1875 33.109375 48.1875 
Q 26.21875 48.1875 22.15625 43.53125 
Q 18.109375 38.875 18.109375 30.90625 
L 18.109375 0 
L 9.078125 0 
L 9.078125 54.6875 
L 18.109375 54.6875 
L 18.109375 46.1875 
Q 21.1875 51.21875 25.484375 53.609375 
Q 29.78125 56 35.6875 56 
Q 41.65625 56 45.828125 52.96875 
Q 50 49.953125 52 44.1875 
" id="BitstreamVeraSans-Roman-6d"/>
      <path d="M 9.421875 54.6875 
L 18.40625 54.6875 
L 18.40625 0 
L 9.421875 0 
z
M 9.421875 75.984375 
L 18.40625 75.984375 
L 18.40625 64.59375 
L 9.421875 64.59375 
z
" id="BitstreamVeraSans-Roman-69"/>
      <path d="M 56.203125 29.59375 
L 56.203125 25.203125 
L 14.890625 25.203125 
Q 15.484375 15.921875 20.484375 11.0625 
Q 25.484375 6.203125 34.421875 6.203125 
Q 39.59375 6.203125 44.453125 7.46875 
Q 49.3125 8.734375 54.109375 11.28125 
L 54.109375 2.78125 
Q 49.265625 0.734375 44.1875 -0.34375 
Q 39.109375 -1.421875 33.890625 -1.421875 
Q 20.796875 -1.421875 13.15625 6.1875 
Q 5.515625 13.8125 5.515625 26.8125 
Q 5.515625 40.234375 12.765625 48.109375 
Q 20.015625 56 32.328125 56 
Q 43.359375 56 49.78125 48.890625 
Q 56.203125 41.796875 56.203125 29.59375 
M 47.21875 32.234375 
Q 47.125 39.59375 43.09375 43.984375 
Q 39.0625 48.390625 32.421875 48.390625 
Q 24.90625 48.390625 20.390625 44.140625 
Q 15.875 39.890625 15.1875 32.171875 
z
" id="BitstreamVeraSans-Roman-65"/>
      <path d="M 18.3125 70.21875 
L 18.3125 54.6875 
L 36.8125 54.6875 
L 36.8125 47.703125 
L 18.3125 47.703125 
L 18.3125 18.015625 
Q 18.3125 11.328125 20.140625 9.421875 
Q 21.96875 7.515625 27.59375 7.515625 
L 36.8125 7.515625 
L 36.8125 0 
L 27.59375 0 
Q 17.1875 0 13.234375 3.875 
Q 9.28125 7.765625 9.28125 18.015625 
L 9.28125 47.703125 
L 2.6875 47.703125 
L 2.6875 54.6875 
L 9.28125 54.6875 
L 9.28125 70.21875 
z
" id="BitstreamVeraSans-Roman-74"/>
      <path d="M 9.8125 72.90625 
L 19.671875 72.90625 
L 19.671875 43.015625 
L 55.515625 43.015625 
L 55.515625 72.90625 
L 65.375 72.90625 
L 65.375 0 
L 55.515625 0 
L 55.515625 34.71875 
L 19.671875 34.71875 
L 19.671875 0 
L 9.8125 0 
z
" id="BitstreamVeraSans-Roman-48"/>
      <path d="M 8.5 21.578125 
L 8.5 54.6875 
L 17.484375 54.6875 
L 17.484375 21.921875 
Q 17.484375 14.15625 20.5 10.265625 
Q 23.53125 6.390625 29.59375 6.390625 
Q 36.859375 6.390625 41.078125 11.03125 
Q 45.3125 15.671875 45.3125 23.6875 
L 45.3125 54.6875 
L 54.296875 54.6875 
L 54.296875 0 
L 45.3125 0 
L 45.3125 8.40625 
Q 42.046875 3.421875 37.71875 1 
Q 33.40625 -1.421875 27.6875 -1.421875 
Q 18.265625 -1.421875 13.375 4.4375 
Q 8.5 10.296875 8.5 21.578125 
" id="BitstreamVeraSans-Roman-75"/>
      <path d="M 12.40625 8.296875 
L 28.515625 8.296875 
L 28.515625 63.921875 
L 10.984375 60.40625 
L 10.984375 69.390625 
L 28.421875 72.90625 
L 38.28125 72.90625 
L 38.28125 8.296875 
L 54.390625 8.296875 
L 54.390625 0 
L 12.40625 0 
z
" id="BitstreamVeraSans-Roman-31"/>
      <path d="M 10.984375 1.515625 
L 10.984375 10.5 
Q 14.703125 8.734375 18.5 7.8125 
Q 22.3125 6.890625 25.984375 6.890625 
Q 35.75 6.890625 40.890625 13.453125 
Q 46.046875 20.015625 46.78125 33.40625 
Q 43.953125 29.203125 39.59375 26.953125 
Q 35.25 24.703125 29.984375 24.703125 
Q 19.046875 24.703125 12.671875 31.3125 
Q 6.296875 37.9375 6.296875 49.421875 
Q 6.296875 60.640625 12.9375 67.421875 
Q 19.578125 74.21875 30.609375 74.21875 
Q 43.265625 74.21875 49.921875 64.515625 
Q 56.59375 54.828125 56.59375 36.375 
Q 56.59375 19.140625 48.40625 8.859375 
Q 40.234375 -1.421875 26.421875 -1.421875 
Q 22.703125 -1.421875 18.890625 -0.6875 
Q 15.09375 0.046875 10.984375 1.515625 
M 30.609375 32.421875 
Q 37.25 32.421875 41.125 36.953125 
Q 45.015625 41.5 45.015625 49.421875 
Q 45.015625 57.28125 41.125 61.84375 
Q 37.25 66.40625 30.609375 66.40625 
Q 23.96875 66.40625 20.09375 61.84375 
Q 16.21875 57.28125 16.21875 49.421875 
Q 16.21875 41.5 20.09375 36.953125 
Q 23.96875 32.421875 30.609375 32.421875 
" id="BitstreamVeraSans-Roman-39"/>
      <path d="M 31 75.875 
Q 24.46875 64.65625 21.28125 53.65625 
Q 18.109375 42.671875 18.109375 31.390625 
Q 18.109375 20.125 21.3125 9.0625 
Q 24.515625 -2 31 -13.1875 
L 23.1875 -13.1875 
Q 15.875 -1.703125 12.234375 9.375 
Q 8.59375 20.453125 8.59375 31.390625 
Q 8.59375 42.28125 12.203125 53.3125 
Q 15.828125 64.359375 23.1875 75.875 
z
" id="BitstreamVeraSans-Roman-28"/>
      <path d="M 54.890625 33.015625 
L 54.890625 0 
L 45.90625 0 
L 45.90625 32.71875 
Q 45.90625 40.484375 42.875 44.328125 
Q 39.84375 48.1875 33.796875 48.1875 
Q 26.515625 48.1875 22.3125 43.546875 
Q 18.109375 38.921875 18.109375 30.90625 
L 18.109375 0 
L 9.078125 0 
L 9.078125 54.6875 
L 18.109375 54.6875 
L 18.109375 46.1875 
Q 21.34375 51.125 25.703125 53.5625 
Q 30.078125 56 35.796875 56 
Q 45.21875 56 50.046875 50.171875 
Q 54.890625 44.34375 54.890625 33.015625 
" id="BitstreamVeraSans-Roman-6e"/>
      <path d="M 8.203125 72.90625 
L 55.078125 72.90625 
L 55.078125 68.703125 
L 28.609375 0 
L 18.3125 0 
L 43.21875 64.59375 
L 8.203125 64.59375 
z
" id="BitstreamVeraSans-Roman-37"/>
      <path d="M 37.796875 64.3125 
L 12.890625 25.390625 
L 37.796875 25.390625 
z
M 35.203125 72.90625 
L 47.609375 72.90625 
L 47.609375 25.390625 
L 58.015625 25.390625 
L 58.015625 17.1875 
L 47.609375 17.1875 
L 47.609375 0 
L 37.796875 0 
L 37.796875 17.1875 
L 4.890625 17.1875 
L 4.890625 26.703125 
z
" id="BitstreamVeraSans-Roman-34"/>
      <path d="M 34.28125 27.484375 
Q 23.390625 27.484375 19.1875 25 
Q 14.984375 22.515625 14.984375 16.5 
Q 14.984375 11.71875 18.140625 8.90625 
Q 21.296875 6.109375 26.703125 6.109375 
Q 34.1875 6.109375 38.703125 11.40625 
Q 43.21875 16.703125 43.21875 25.484375 
L 43.21875 27.484375 
z
M 52.203125 31.203125 
L 52.203125 0 
L 43.21875 0 
L 43.21875 8.296875 
Q 40.140625 3.328125 35.546875 0.953125 
Q 30.953125 -1.421875 24.3125 -1.421875 
Q 15.921875 -1.421875 10.953125 3.296875 
Q 6 8.015625 6 15.921875 
Q 6 25.140625 12.171875 29.828125 
Q 18.359375 34.515625 30.609375 34.515625 
L 43.21875 34.515625 
L 43.21875 35.40625 
Q 43.21875 41.609375 39.140625 45 
Q 35.0625 48.390625 27.6875 48.390625 
Q 23 48.390625 18.546875 47.265625 
Q 14.109375 46.140625 10.015625 43.890625 
L 10.015625 52.203125 
Q 14.9375 54.109375 19.578125 55.046875 
Q 24.21875 56 28.609375 56 
Q 40.484375 56 46.34375 49.84375 
Q 52.203125 43.703125 52.203125 31.203125 
" id="BitstreamVeraSans-Roman-61"/>
      <path d="M 44.28125 53.078125 
L 44.28125 44.578125 
Q 40.484375 46.53125 36.375 47.5 
Q 32.28125 48.484375 27.875 48.484375 
Q 21.1875 48.484375 17.84375 46.4375 
Q 14.5 44.390625 14.5 40.28125 
Q 14.5 37.15625 16.890625 35.375 
Q 19.28125 33.59375 26.515625 31.984375 
L 29.59375 31.296875 
Q 39.15625 29.25 43.1875 25.515625 
Q 47.21875 21.78125 47.21875 15.09375 
Q 47.21875 7.46875 41.1875 3.015625 
Q 35.15625 -1.421875 24.609375 -1.421875 
Q 20.21875 -1.421875 15.453125 -0.5625 
Q 10.6875 0.296875 5.421875 2 
L 5.421875 11.28125 
Q 10.40625 8.6875 15.234375 7.390625 
Q 20.0625 6.109375 24.8125 6.109375 
Q 31.15625 6.109375 34.5625 8.28125 
Q 37.984375 10.453125 37.984375 14.40625 
Q 37.984375 18.0625 35.515625 20.015625 
Q 33.0625 21.96875 24.703125 23.78125 
L 21.578125 24.515625 
Q 13.234375 26.265625 9.515625 29.90625 
Q 5.8125 33.546875 5.8125 39.890625 
Q 5.8125 47.609375 11.28125 51.796875 
Q 16.75 56 26.8125 56 
Q 31.78125 56 36.171875 55.265625 
Q 40.578125 54.546875 44.28125 53.078125 
" id="BitstreamVeraSans-Roman-73"/>
      <path d="M 9.421875 75.984375 
L 18.40625 75.984375 
L 18.40625 0 
L 9.421875 0 
z
" id="BitstreamVeraSans-Roman-6c"/>
      <path id="BitstreamVeraSans-Roman-20"/>
      <path d="M 8.015625 75.875 
L 15.828125 75.875 
Q 23.140625 64.359375 26.78125 53.3125 
Q 30.421875 42.28125 30.421875 31.390625 
Q 30.421875 20.453125 26.78125 9.375 
Q 23.140625 -1.703125 15.828125 -13.1875 
L 8.015625 -13.1875 
Q 14.5 -2 17.703125 9.0625 
Q 20.90625 20.125 20.90625 31.390625 
Q 20.90625 42.671875 17.703125 53.65625 
Q 14.5 64.65625 8.015625 75.875 
" id="BitstreamVeraSans-Roman-29"/>
     </defs>
     <g transform="translate(53.2619706633 27.118125)scale(0.12 -0.12)">
      <use xlink:href="#BitstreamVeraSans-Roman-48"/>
      <use x="75.1953125" xlink:href="#BitstreamVeraSans-Roman-61"/>
      <use x="136.474609375" xlink:href="#BitstreamVeraSans-Roman-6c"/>
      <use x="164.2578125" xlink:href="#BitstreamVeraSans-Roman-6c"/>
      <use x="192.041015625" xlink:href="#BitstreamVeraSans-Roman-73"/>
      <use x="244.140625" xlink:href="#BitstreamVeraSans-Roman-20"/>
      <use x="275.927734375" xlink:href="#BitstreamVeraSans-Roman-28"/>
      <use x="314.94140625" xlink:href="#BitstreamVeraSans-Roman-31"/>
      <use x="378.564453125" xlink:href="#BitstreamVeraSans-Roman-39"/>
      <use x="442.1875" xlink:href="#BitstreamVeraSans-Roman-37"/>
      <use x="505.810546875" xlink:href="#BitstreamVeraSans-Roman-34"/>
      <use x="569.43359375" xlink:href="#BitstreamVeraSans-Roman-29"/>
      <use x="608.447265625" xlink:href="#BitstreamVeraSans-Roman-20"/>
      <use x="640.234375" xlink:href="#BitstreamVeraSans-Roman-73"/>
      <use x="692.333984375" xlink:href="#BitstreamVeraSans-Roman-69"/>
      <use x="720.1171875" xlink:href="#BitstreamVeraSans-Roman-74"/>
      <use x="759.326171875" xlink:href="#BitstreamVeraSans-Roman-65"/>
      <use x="820.849609375" xlink:href="#BitstreamVeraSans-Roman-20"/>
      <use x="852.63671875" xlink:href="#BitstreamVeraSans-Roman-6d"/>
      <use x="950.048828125" xlink:href="#BitstreamVeraSans-Roman-65"/>
      <use x="1011.572265625" xlink:href="#BitstreamVeraSans-Roman-61"/>
      <use x="1072.8515625" xlink:href="#BitstreamVeraSans-Roman-6e"/>
      <use x="1136.23046875" xlink:href="#BitstreamVeraSans-Roman-73"/>
      <use x="1188.330078125" xlink:href="#BitstreamVeraSans-Roman-20"/>
      <use x="1220.1171875" xlink:href="#BitstreamVeraSans-Roman-28"/>
      <use x="1259.130859375" xlink:href="#BitstreamVeraSans-Roman-69"/>
      <use x="1286.9140625" xlink:href="#BitstreamVeraSans-Roman-6e"/>
      <use x="1350.29296875" xlink:href="#BitstreamVeraSans-Roman-20"/>
      <use x="1382.080078125" xlink:href="#BitstreamVeraSans-Roman-73"/>
      <use x="1434.1796875" xlink:href="#BitstreamVeraSans-Roman-69"/>
      <use x="1461.962890625" xlink:href="#BitstreamVeraSans-Roman-74"/>
      <use x="1501.171875" xlink:href="#BitstreamVeraSans-Roman-75"/>
      <use x="1564.55078125" xlink:href="#BitstreamVeraSans-Roman-29"/>
     </g>
    </g>
    <g id="PathCollection_4">
     <path d="M 23.261971 43.817943 
C 23.854983 43.817943 24.423787 43.582337 24.843109 43.163014 
C 25.262432 42.743691 25.498039 42.174887 25.498039 41.581875 
C 25.498039 40.988863 25.262432 40.420059 24.843109 40.000736 
C 24.423787 39.581413 23.854983 39.345807 23.261971 39.345807 
C 22.668959 39.345807 22.100155 39.581413 21.680832 40.000736 
C 21.261509 40.420059 21.025903 40.988863 21.025903 41.581875 
C 21.025903 42.174887 21.261509 42.743691 21.680832 43.163014 
C 22.100155 43.582337 22.668959 43.817943 23.261971 43.817943 
z
" style="fill:none;stroke:#0000ff;"/>
     <path d="M 31.661971 42.767943 
C 32.254983 42.767943 32.823787 42.532337 33.243109 42.113014 
C 33.662432 41.693691 33.898039 41.124887 33.898039 40.531875 
C 33.898039 39.938863 33.662432 39.370059 33.243109 38.950736 
C 32.823787 38.531413 32.254983 38.295807 31.661971 38.295807 
C 31.068959 38.295807 30.500155 38.531413 30.080832 38.950736 
C 29.661509 39.370059 29.425903 39.938863 29.425903 40.531875 
C 29.425903 41.124887 29.661509 41.693691 30.080832 42.113014 
C 30.500155 42.532337 31.068959 42.767943 31.661971 42.767943 
z
" style="fill:none;stroke:#0000ff;"/>
     <path d="M 40.061971 44.342943 
C 40.654983 44.342943 41.223787 44.107337 41.643109 43.688014 
C 42.062432 43.268691 42.298039 42.699887 42.298039 42.106875 
C 42.298039 41.513863 42.062432 40.945059 41.643109 40.525736 
C 41.223787 40.106413 40.654983 39.870807 40.061971 39.870807 
C 39.468959 39.870807 38.900155 40.106413 38.480832 40.525736 
C 38.061509 40.945059 37.825903 41.513863 37.825903 42.106875 
C 37.825903 42.699887 38.061509 43.268691 38.480832 43.688014 
C 38.900155 44.107337 39.468959 44.342943 40.061971 44.342943 
z
" style="fill:none;stroke:#0000ff;"/>
    </g>
    <g id="text_2">
     <!-- Halls (1974) site means (tilt-corrected) -->
     <defs>
      <path d="M 30.609375 48.390625 
Q 23.390625 48.390625 19.1875 42.75 
Q 14.984375 37.109375 14.984375 27.296875 
Q 14.984375 17.484375 19.15625 11.84375 
Q 23.34375 6.203125 30.609375 6.203125 
Q 37.796875 6.203125 41.984375 11.859375 
Q 46.1875 17.53125 46.1875 27.296875 
Q 46.1875 37.015625 41.984375 42.703125 
Q 37.796875 48.390625 30.609375 48.390625 
M 30.609375 56 
Q 42.328125 56 49.015625 48.375 
Q 55.71875 40.765625 55.71875 27.296875 
Q 55.71875 13.875 49.015625 6.21875 
Q 42.328125 -1.421875 30.609375 -1.421875 
Q 18.84375 -1.421875 12.171875 6.21875 
Q 5.515625 13.875 5.515625 27.296875 
Q 5.515625 40.765625 12.171875 48.375 
Q 18.84375 56 30.609375 56 
" id="BitstreamVeraSans-Roman-6f"/>
      <path d="M 4.890625 31.390625 
L 31.203125 31.390625 
L 31.203125 23.390625 
L 4.890625 23.390625 
z
" id="BitstreamVeraSans-Roman-2d"/>
      <path d="M 45.40625 46.390625 
L 45.40625 75.984375 
L 54.390625 75.984375 
L 54.390625 0 
L 45.40625 0 
L 45.40625 8.203125 
Q 42.578125 3.328125 38.25 0.953125 
Q 33.9375 -1.421875 27.875 -1.421875 
Q 17.96875 -1.421875 11.734375 6.484375 
Q 5.515625 14.40625 5.515625 27.296875 
Q 5.515625 40.1875 11.734375 48.09375 
Q 17.96875 56 27.875 56 
Q 33.9375 56 38.25 53.625 
Q 42.578125 51.265625 45.40625 46.390625 
M 14.796875 27.296875 
Q 14.796875 17.390625 18.875 11.75 
Q 22.953125 6.109375 30.078125 6.109375 
Q 37.203125 6.109375 41.296875 11.75 
Q 45.40625 17.390625 45.40625 27.296875 
Q 45.40625 37.203125 41.296875 42.84375 
Q 37.203125 48.484375 30.078125 48.484375 
Q 22.953125 48.484375 18.875 42.84375 
Q 14.796875 37.203125 14.796875 27.296875 
" id="BitstreamVeraSans-Roman-64"/>
      <path d="M 41.109375 46.296875 
Q 39.59375 47.171875 37.8125 47.578125 
Q 36.03125 48 33.890625 48 
Q 26.265625 48 22.1875 43.046875 
Q 18.109375 38.09375 18.109375 28.8125 
L 18.109375 0 
L 9.078125 0 
L 9.078125 54.6875 
L 18.109375 54.6875 
L 18.109375 46.1875 
Q 20.953125 51.171875 25.484375 53.578125 
Q 30.03125 56 36.53125 56 
Q 37.453125 56 38.578125 55.875 
Q 39.703125 55.765625 41.0625 55.515625 
z
" id="BitstreamVeraSans-Roman-72"/>
      <path d="M 48.78125 52.59375 
L 48.78125 44.1875 
Q 44.96875 46.296875 41.140625 47.34375 
Q 37.3125 48.390625 33.40625 48.390625 
Q 24.65625 48.390625 19.8125 42.84375 
Q 14.984375 37.3125 14.984375 27.296875 
Q 14.984375 17.28125 19.8125 11.734375 
Q 24.65625 6.203125 33.40625 6.203125 
Q 37.3125 6.203125 41.140625 7.25 
Q 44.96875 8.296875 48.78125 10.40625 
L 48.78125 2.09375 
Q 45.015625 0.34375 40.984375 -0.53125 
Q 36.96875 -1.421875 32.421875 -1.421875 
Q 20.0625 -1.421875 12.78125 6.34375 
Q 5.515625 14.109375 5.515625 27.296875 
Q 5.515625 40.671875 12.859375 48.328125 
Q 20.21875 56 33.015625 56 
Q 37.15625 56 41.109375 55.140625 
Q 45.0625 54.296875 48.78125 52.59375 
" id="BitstreamVeraSans-Roman-63"/>
     </defs>
     <g transform="translate(53.2619706633 44.731875)scale(0.12 -0.12)">
      <use xlink:href="#BitstreamVeraSans-Roman-48"/>
      <use x="75.1953125" xlink:href="#BitstreamVeraSans-Roman-61"/>
      <use x="136.474609375" xlink:href="#BitstreamVeraSans-Roman-6c"/>
      <use x="164.2578125" xlink:href="#BitstreamVeraSans-Roman-6c"/>
      <use x="192.041015625" xlink:href="#BitstreamVeraSans-Roman-73"/>
      <use x="244.140625" xlink:href="#BitstreamVeraSans-Roman-20"/>
      <use x="275.927734375" xlink:href="#BitstreamVeraSans-Roman-28"/>
      <use x="314.94140625" xlink:href="#BitstreamVeraSans-Roman-31"/>
      <use x="378.564453125" xlink:href="#BitstreamVeraSans-Roman-39"/>
      <use x="442.1875" xlink:href="#BitstreamVeraSans-Roman-37"/>
      <use x="505.810546875" xlink:href="#BitstreamVeraSans-Roman-34"/>
      <use x="569.43359375" xlink:href="#BitstreamVeraSans-Roman-29"/>
      <use x="608.447265625" xlink:href="#BitstreamVeraSans-Roman-20"/>
      <use x="640.234375" xlink:href="#BitstreamVeraSans-Roman-73"/>
      <use x="692.333984375" xlink:href="#BitstreamVeraSans-Roman-69"/>
      <use x="720.1171875" xlink:href="#BitstreamVeraSans-Roman-74"/>
      <use x="759.326171875" xlink:href="#BitstreamVeraSans-Roman-65"/>
      <use x="820.849609375" xlink:href="#BitstreamVeraSans-Roman-20"/>
      <use x="852.63671875" xlink:href="#BitstreamVeraSans-Roman-6d"/>
      <use x="950.048828125" xlink:href="#BitstreamVeraSans-Roman-65"/>
      <use x="1011.572265625" xlink:href="#BitstreamVeraSans-Roman-61"/>
      <use x="1072.8515625" xlink:href="#BitstreamVeraSans-Roman-6e"/>
      <use x="1136.23046875" xlink:href="#BitstreamVeraSans-Roman-73"/>
      <use x="1188.330078125" xlink:href="#BitstreamVeraSans-Roman-20"/>
      <use x="1220.1171875" xlink:href="#BitstreamVeraSans-Roman-28"/>
      <use x="1259.130859375" xlink:href="#BitstreamVeraSans-Roman-74"/>
      <use x="1298.33984375" xlink:href="#BitstreamVeraSans-Roman-69"/>
      <use x="1326.123046875" xlink:href="#BitstreamVeraSans-Roman-6c"/>
      <use x="1353.90625" xlink:href="#BitstreamVeraSans-Roman-74"/>
      <use x="1393.115234375" xlink:href="#BitstreamVeraSans-Roman-2d"/>
      <use x="1429.19921875" xlink:href="#BitstreamVeraSans-Roman-63"/>
      <use x="1484.1796875" xlink:href="#BitstreamVeraSans-Roman-6f"/>
      <use x="1545.361328125" xlink:href="#BitstreamVeraSans-Roman-72"/>
      <use x="1586.458984375" xlink:href="#BitstreamVeraSans-Roman-72"/>
      <use x="1627.541015625" xlink:href="#BitstreamVeraSans-Roman-65"/>
      <use x="1689.064453125" xlink:href="#BitstreamVeraSans-Roman-63"/>
      <use x="1744.044921875" xlink:href="#BitstreamVeraSans-Roman-74"/>
      <use x="1783.25390625" xlink:href="#BitstreamVeraSans-Roman-65"/>
      <use x="1844.77734375" xlink:href="#BitstreamVeraSans-Roman-64"/>
      <use x="1908.25390625" xlink:href="#BitstreamVeraSans-Roman-29"/>
     </g>
    </g>
   </g>
  </g>
 </g>
 <defs>
  <clipPath id="pc736a83425">
   <rect height="252.4" width="235.628316327" x="35.4828125" y="7.2"/>
  </clipPath>
 </defs>
</svg>
